<?xml version="1.0" encoding="utf-8" ?><svg xmlns="http://www.w3.org/2000/svg" xmlns:xlink="http://www.w3.org/1999/xlink" width="2048" height="1024" viewBox="0 0 2048 1024"><path fill="#1C3C60" d="M745.059 212.742C745.634 210.146 746.258 207.561 746.932 204.989C757.523 164.9 786.428 149.121 823.576 135.909C828.077 134.308 834.231 134.536 838.373 132.688C855.804 124.913 872.867 116.494 891.241 111.034C964.813 89.0085 1050.38 86.5688 1124.62 106.198C1187.82 122.907 1230.9 155.608 1263.07 211.728C1302.63 225.581 1357.51 244.482 1302.37 286.898C1346.16 309.134 1379.84 344.599 1410.7 381.861C1448.3 382.472 1494.05 380.006 1532.5 378.995L1784.66 371.405C1808.36 370.638 1938.83 364.392 1953.04 369.594C1968.98 386.905 1930.2 428.29 1917.67 439.629C1896.17 459.086 1859.75 473.412 1831.01 475.47C1817.53 506.822 1797.32 528.567 1765.32 541.622C1747.72 548.798 1737.74 548.777 1720.75 552.552C1701.05 587.391 1682.42 609.691 1641.78 621.026C1631.86 623.746 1621.69 625.53 1611.43 626.356C1594.54 654.012 1583.71 670.585 1553.59 685.568C1514.44 705.039 1478.72 696.927 1437.91 696.192C1399.8 768.634 1341.07 822.321 1269.15 861.261C1249.99 871.635 1227.76 878.273 1210.74 887.45C1247.41 890.476 1409.27 891.757 1432.54 907.126L1433.71 909.168C1431.88 912.569 1428.44 913.752 1424.8 914.793C1356.02 934.463 698.486 937.885 655.063 912.277C654.241 911.792 653.633 911.219 653.045 910.48C653.742 908.29 654.579 907.916 656.583 906.926C679.248 895.731 800.799 892.087 832.838 890.726C844.967 890.211 858.213 891.016 870.122 889.195C769.677 851.341 705.974 810.165 645.562 720.882C609.917 722.248 578.639 730.281 541.844 721.816C504.28 713.174 477.87 693.14 457.204 661.256C405.372 659.926 362.779 640.26 337.588 593.257C289.141 589.492 239.113 574.283 218.986 525.265C190.361 522.773 163.705 518.374 138.854 501.583C120.966 489.497 95.3853 466.05 89.5636 444.176C88.7494 442.295 89.5073 435.015 91.5787 434.013C104.534 427.75 142.475 427.635 154.965 426.938L241.882 422.139L509.804 408.724C553.23 406.581 598.685 405.064 641.918 401.915C667.275 364.577 699.13 336.678 735.078 310.264C731.694 305.172 726.815 296.227 731.026 289.727C732.219 287.886 732.295 287.933 732.929 285.839C697.82 243.899 702.79 242.327 745.059 212.742Z"/><path fill="#BEE0F7" d="M1247.27 685.764C1294.17 686.965 1341.57 691.197 1388.5 693.017C1404.78 693.648 1421.73 694.616 1437.91 696.192C1399.8 768.634 1341.07 822.321 1269.15 861.261C1249.99 871.635 1227.76 878.273 1210.74 887.45C1207.36 888.567 1183.76 887.064 1178.99 886.839C1193.4 846.78 1196.86 819.87 1197 777.939C1201.18 775.016 1205.26 771.946 1209.22 768.734C1237.91 745.073 1243.8 721.55 1247.27 685.764Z"/><path fill="#BEE0F7" d="M645.562 720.882C657.025 718.355 686.453 717.303 699.134 716.417C719.247 715.01 743.77 712.014 763.525 711.855C760.317 728.64 754.369 763.954 753.712 780.716C788.384 792.851 852.684 817.541 887.27 819.46C891.57 846.441 895.482 863.578 906.886 888.724C901.556 888.899 873.337 890.196 870.122 889.195C769.677 851.341 705.974 810.165 645.562 720.882Z"/><path fill="#BEE0F7" d="M1302.37 286.898C1346.16 309.134 1379.84 344.599 1410.7 381.861C1335.43 384.324 1310.23 441.07 1259.77 488.241C1291.49 433.1 1293.34 388.823 1285.51 327.434C1311.71 318.658 1304.75 305.877 1290.06 288.522C1294.6 288.243 1297.97 288.193 1302.37 286.898Z"/><path fill="#BEE0F7" d="M735.078 310.264C739.212 312.963 743.347 315.766 747.685 318.113C732.663 371.715 732.617 420.415 751.182 473.28C729.091 451.248 699.661 416.5 670.481 407.214C660.672 404.093 649.825 404.085 641.918 401.915C667.275 364.577 699.13 336.678 735.078 310.264Z"/><path fill="#FEFEFE" d="M765.637 300.035C773.471 292.952 797.185 289.472 807.852 286.995C893.301 267.153 981.524 262.433 1069 267.559C1125.49 270.868 1187.4 282.767 1241.23 300.645C1250.05 303.574 1263.41 307.7 1270.68 313.841C1272.3 315.204 1272.62 318.879 1272.91 321.057C1278.42 360.645 1282.22 392.848 1271.05 432.588C1233.24 579.705 1054.26 558.967 937.815 553.005C907.051 551.43 872.588 549.957 842.498 543.87C816.366 538.583 776.583 504.726 767.543 479.69C767.188 479.12 766.844 478.543 766.513 477.958C745.592 441.134 744.021 374.67 754.326 334.588C757.091 323.834 762.539 311.494 765.637 300.035Z"/><path fill="#E3E2DF" d="M767.543 479.69C770.974 482.031 780.68 494.116 785.303 498.284C831.866 539.837 908.989 538.092 969.294 537.133C1055.44 535.764 1176.2 545.593 1240.71 476.66C1245.84 471.185 1249.58 465.377 1254.15 460.086C1260.57 452.673 1264.74 438.87 1271.05 432.588C1233.24 579.705 1054.26 558.967 937.815 553.005C907.051 551.43 872.588 549.957 842.498 543.87C816.366 538.583 776.583 504.726 767.543 479.69Z"/><path fill="#BEE0F7" d="M765.637 300.035C773.471 292.952 797.185 289.472 807.852 286.995C893.301 267.153 981.524 262.433 1069 267.559C1125.49 270.868 1187.4 282.767 1241.23 300.645C1250.05 303.574 1263.41 307.7 1270.68 313.841C1272.3 315.204 1272.62 318.879 1272.91 321.057C1218.62 294.206 1132.05 275.634 1071.9 272.759C1049.41 271.684 1023.12 272.271 1000.15 272.118C966.821 271.897 935.74 270.852 902.652 276.058C875.134 280.388 847.649 284.224 820.183 289.237C805.605 291.898 780.522 299.203 766.528 299.991L765.637 300.035Z"/><path fill="#1C3C60" d="M997.655 276.568C998.895 276.469 1000.14 276.395 1001.38 276.348C1055.89 274.407 1114.01 272.902 1156.48 312.963C1178.17 333.419 1188.99 361.426 1189.84 390.983C1190.75 421.439 1179.3 450.969 1158.08 472.839C1120.62 512.092 1078.79 512.241 1028.34 513.413L958.25 514.972C937.683 515.007 915.707 515.939 894.978 516.163C857.851 517.443 829.005 516.089 800.634 489.199C756.542 447.409 753.152 365.373 794.919 320.945C802.452 312.919 811.334 306.275 821.161 301.315C865.136 279.622 948.225 277.999 997.655 276.568Z"/><path fill="#7FA7C6" d="M1026.81 286.466C1027.21 286.445 1027.61 286.427 1028.01 286.414C1069.52 284.93 1116.39 291.243 1147.79 320.825C1166.97 338.775 1178.11 363.696 1178.7 389.96C1179.2 418.167 1168.49 445.42 1148.92 465.742C1111.71 504.566 1062.1 501.391 1013.04 502.513L929.042 504.31L927.701 504.368C905.724 505.281 879.531 506.242 857.97 504.057C777.131 495.865 752.525 382.834 802.827 329.298C811.866 319.707 822.829 312.134 834.998 307.075C879.552 288.71 976.146 287.892 1026.81 286.466Z"/><path fill="#1C3C60" d="M1001.27 294.428L1005.18 294.294C1050.39 292.778 1103.78 291.065 1139.08 324.288C1157.76 341.919 1168.55 366.331 1169.01 392.012C1169.7 417.988 1160.05 443.176 1142.18 462.042C1109.41 496.475 1064.94 494.297 1021.1 495.273L952.748 496.96C936.075 496.849 918.165 497.583 901.439 498.111C868.58 499.149 840.383 500.242 814.519 476.709C794.715 458.691 785.366 431.816 784.147 405.53C782.983 380.42 789.842 353.941 807.157 335.126C815.195 326.443 824.969 319.546 835.844 314.883C874.745 298.248 958.139 296.346 1001.27 294.428Z"/><path fill="#E3E2DF" d="M800.771 367.353C806.977 349.983 820.085 334.902 836.836 326.928C880.966 305.923 1017.03 301.58 1066.16 306.543C1077.25 307.664 1088.39 309.793 1098.91 313.558C1121.58 321.672 1140.56 337.563 1150.89 359.463C1156.77 371.941 1159.97 387.551 1157.22 401.246C1156.51 420.995 1150.21 435.252 1137.31 450.241C1105.03 487.739 1055.34 482.503 1010.84 484.045C997.342 484.513 983.826 484.475 970.324 484.889C936.978 485.093 902.014 488.809 868.772 487.051C861.238 486.675 853.792 485.264 846.644 482.858C800.633 467.082 786.236 409.508 800.771 367.353Z"/><path fill="#BEE0F7" d="M800.771 367.353C806.977 349.983 820.085 334.902 836.836 326.928C880.966 305.923 1017.03 301.58 1066.16 306.543C1077.25 307.664 1088.39 309.793 1098.91 313.558C1121.58 321.672 1140.56 337.563 1150.89 359.463C1156.77 371.941 1159.97 387.551 1157.22 401.246C1154.11 381.07 1147.84 359.933 1132.87 344.484C1087.36 297.506 1007.94 313.529 949.115 315.105C921.264 315.851 893.982 319.586 866.768 323.452C855.603 325.038 842.473 330.662 832.462 335.598C817.573 342.991 810.8 358.472 801.304 366.89L800.771 367.353Z"/><path fill="#1C3C60" d="M1046.13 337.533C1072 332.906 1096.76 350.046 1101.53 375.894C1106.3 401.742 1089.3 426.591 1063.48 431.509C1037.45 436.466 1012.36 419.3 1007.55 393.245C1002.74 367.19 1020.05 342.196 1046.13 337.533Z"/><path fill="#FEFEFE" d="M1064.1 351.467C1073.8 349.984 1082.92 356.5 1084.66 366.16C1086.4 375.819 1080.12 385.105 1070.51 387.099C1064.07 388.436 1057.4 386.169 1053.11 381.179C1048.81 376.188 1047.57 369.26 1049.85 363.085C1052.14 356.911 1057.59 352.462 1064.1 351.467Z"/><path fill="#1C3C60" d="M858.264 344.138C884.213 340.04 908.529 357.872 912.42 383.853C916.31 409.834 898.284 434.007 872.273 437.69C846.554 441.331 822.711 423.551 818.864 397.862C815.018 372.174 832.607 348.189 858.264 344.138Z"/><path fill="#FEFEFE" d="M873.461 360.5C879.661 358.406 886.508 359.816 891.375 364.19C896.242 368.564 898.372 375.222 896.949 381.609C895.525 387.996 890.768 393.119 884.505 395.013C875.034 397.875 865.019 392.612 862.004 383.189C858.989 373.767 864.089 363.667 873.461 360.5Z"/><path fill="#1C3C60" d="M990.174 420.218C1005.96 418.562 1000.68 447.593 996.62 455.966C991.944 465.764 983.478 473.233 973.174 476.652C958.46 481.514 944.862 478.407 931.609 471.728C920.449 461.775 911.065 442.765 916.615 427.974C919.343 420.704 946.265 426.242 953.547 426.211C966.8 426.154 977.404 423.113 990.174 420.218Z"/><path fill="#DD8545" d="M943.514 466.946C939.781 465.16 937.635 463.694 937.128 459.414C940.239 452.263 956.338 448.861 963.471 448.116C972.63 447.159 980.495 449.236 989.115 451.927L983.118 459.405C971.788 467.616 964.007 470.629 949.504 468.19C947.495 467.839 945.497 467.424 943.514 466.946Z"/><path fill="#E39B54" d="M943.514 466.946C955.933 455.202 967.285 448.984 983.118 459.405C971.788 467.616 964.007 470.629 949.504 468.19C947.495 467.839 945.497 467.424 943.514 466.946Z"/><path fill="#EDB88D" d="M1111.92 432.967C1112.21 433.269 1112.5 434.339 1112.66 434.808C1110.18 440.1 1104.56 442.45 1099.47 445.075L1098.63 444.273C1099.6 442.063 1109.12 435.304 1111.92 432.967Z"/><path fill="#7FA7C6" d="M817.377 452.878C821.77 453.688 832.505 458.76 836.527 460.994C827.744 460.984 822.958 459.837 817.377 452.878Z"/><path fill="#EDB88D" d="M1121.63 441.971L1122.44 442.892C1121.03 447.287 1114.46 450.054 1110.49 452.017L1109.65 450.567C1112.52 447.079 1117.67 444.38 1121.63 441.971Z"/><path fill="#EDB88D" d="M1097.06 432.911L1097.05 435.037C1095.72 437.946 1092.47 439.054 1089.52 440.51L1089.32 438.83C1090.8 436.111 1094.23 434.576 1097.06 432.911Z"/><path fill="#FEFEFE" d="M795.457 553.936C813.024 556.519 847.745 556.978 866.858 558.135C903.081 560.404 939.267 563.227 975.403 566.603C1000.14 568.938 1026.11 571.259 1050.48 575.576C1045.73 598.305 1042.24 629.128 1039.02 652.611L1020.99 788.14C1015.49 788.057 1008.83 787.504 1003.25 787.173C924.981 781.571 844.304 777.702 766.311 770.786C771.38 748.234 773.601 718.404 777.294 694.763C796.508 691.71 788.09 688.607 796.931 677.772C808.3 663.838 808.93 664.326 806.679 644.836C805.681 636.193 806.384 637.24 801.228 629.132C803.076 613.415 803.016 611.483 788.515 604.771C790.333 588.427 793.325 570.527 795.457 553.936Z"/><path fill="#1C3C60" d="M939.858 608.712C951.293 605.588 963.524 608.911 971.806 617.393C980.088 625.875 983.12 638.181 979.726 649.539C976.331 660.897 967.044 669.522 955.466 672.068C938.174 675.871 921.004 665.192 916.768 648.001C912.533 630.809 922.778 613.377 939.858 608.712Z"/><path fill="#FEFEFE" d="M945.658 617.901C972.308 619.073 966.072 648.217 951.675 661.922C926.195 663.597 931.407 631.6 945.658 617.901Z"/><path fill="#1C3C60" d="M862.033 604.176L876.384 605.078C873.156 618.884 870.767 652.564 869.349 667.894C864.526 667.337 858.697 667.12 853.778 666.805C853.91 663.141 854.424 658.938 854.79 655.239C856.046 642.839 857.772 630.868 859.527 618.535L845.452 628.579L839.647 619.152L862.033 604.176Z"/><path fill="#E39B54" d="M822.354 731.939C832.96 732.017 874.498 732.717 880.702 738.727C882.164 742.513 881.746 741.368 880.493 745.939C871.399 746.095 827.977 744.227 822.012 739.739C820.735 735.777 821.256 736.565 822.354 731.939Z"/><path fill="#E39B54" d="M901.044 709.789C911.112 709.72 954.303 711.465 961.237 716.038C963.106 719.681 962.457 718.9 961.706 723.736C951.668 723.945 910.187 721.659 901.89 717.487C900.068 713.851 900.705 714.424 901.044 709.789Z"/><path fill="#E39B54" d="M901.559 737.058C913.04 738.825 953.414 737.57 959.082 745.656C959.31 749.39 959.438 748.105 956.986 751.639C945.802 750.368 903.974 751.732 898.332 742.658C899.008 739.031 898.809 740.089 901.559 737.058Z"/><path fill="#E39B54" d="M825.387 703.988C835.182 703.952 877.852 704.867 883.115 711.456C883.627 715.111 883.343 714.226 881.382 718.074C869.764 717.215 830.321 717.386 824.24 710.831C823.39 706.965 823.595 708.169 825.387 703.988Z"/><path fill="#1C3C60" d="M890.658 652.933L908.258 654.116L906.855 670.181C900.775 669.652 894.691 669.176 888.603 668.754C889.439 663.656 890.019 658.094 890.658 652.933Z"/><path fill="#E3E2DF" d="M1217.82 547.465C1258.32 508.35 1296.79 466.243 1335.51 425.327C1374.21 384.426 1413.61 393.49 1463.85 391.864C1520.69 389.646 1577.56 388.264 1634.44 387.718C1632 393.079 1628.09 399.642 1625.13 404.914C1604 433.828 1576.56 452.268 1540.78 457.878C1532.44 459.149 1524.03 459.801 1515.6 459.83C1502.3 459.874 1460.39 456.148 1452.6 462.111L1451.41 464.925C1454.37 471.369 1468.57 469.982 1474.93 470.068C1487.76 470.242 1500.64 470.234 1513.48 470.299C1481.15 519.752 1443.9 534.012 1385.74 532.728C1376.8 532.53 1350.79 527.725 1346.96 537.414C1350.77 545.626 1392.71 543.354 1402.34 543.125C1360.81 606.879 1317.02 601.698 1249.79 598.893C1244.01 584.652 1240.49 576.478 1232.26 563.214C1227.56 557.28 1223.13 552.866 1217.82 547.465Z"/><path fill="#FEFEFE" d="M1217.82 547.465C1258.32 508.35 1296.79 466.243 1335.51 425.327C1374.21 384.426 1413.61 393.49 1463.85 391.864C1520.69 389.646 1577.56 388.264 1634.44 387.718C1632 393.079 1628.09 399.642 1625.13 404.914L1487.78 409.454C1459.09 410.354 1430.93 410.801 1402.28 413.338C1365.99 416.551 1347.41 445.501 1323.27 469.267C1292.4 499.661 1263.5 533.135 1232.26 563.214C1227.56 557.28 1223.13 552.866 1217.82 547.465Z"/><path fill="#E3E2DF" d="M414.352 425.159C462.076 420.058 515.223 419.812 563.295 417.437C589.898 416.122 632.04 411.82 656.579 415.693C669.784 417.704 682.207 423.227 692.546 431.684C703.435 440.442 715.353 453.212 725.247 463.213C752.668 490.933 781.217 523.381 814.498 544.201C805.138 543.718 791.89 541.605 784.926 547.727C785.002 552.277 777.768 597.444 776.688 603.895C761.282 607.025 757.183 610.328 747.799 621.998C705.354 613.897 687.508 602.333 660.584 569.382C669.345 568.972 707.543 567.455 712.835 564.796C715.271 561.921 714.841 563.149 715.307 559.937C708.205 551.501 665.949 558.499 652.484 558.818C642.282 559.04 632.08 558.353 622 556.765C585.393 550.758 561.972 533.069 540.819 503.53C551.156 503.206 592.224 503.587 595.695 494.64L594.29 491.842C589.134 487.091 548.262 491.928 538.457 492.163C529.919 492.405 521.374 491.96 512.907 490.831C474.807 485.65 446.16 468.547 422.959 438.188C419.698 433.617 417.135 430.075 414.352 425.159Z"/><path fill="#FEFEFE" d="M414.352 425.159C462.076 420.058 515.223 419.812 563.295 417.437C589.898 416.122 632.04 411.82 656.579 415.693C669.784 417.704 682.207 423.227 692.546 431.684C703.435 440.442 715.353 453.212 725.247 463.213C752.668 490.933 781.217 523.381 814.498 544.201C805.138 543.718 791.89 541.605 784.926 547.727C782.537 546.337 765.649 529.535 762.637 526.608C739.857 504.474 717.443 481.435 694.428 459.561C683.051 448.921 671.787 437.094 656.439 432.473C637.993 426.919 619.455 429.49 600.628 430.386C588.154 430.98 575.506 431.845 563.005 432.262C516.337 433.818 469.655 438.237 422.959 438.188C419.698 433.617 417.135 430.075 414.352 425.159Z"/><path fill="#DD8545" d="M1647.12 387.072C1687.73 387.023 1734.89 384.288 1775.96 382.833C1833.14 380.833 1890.33 379.285 1947.53 378.188C1945.57 383.136 1943.07 387.826 1940.66 392.568C1886.43 483.348 1802.07 464.537 1711.38 462.279L1575.29 459.725C1608.15 441.728 1619.71 434.76 1640.3 402.184L1647.12 387.072Z"/><path fill="#EDB88D" d="M1647.12 387.072C1687.73 387.023 1734.89 384.288 1775.96 382.833C1833.14 380.833 1890.33 379.285 1947.53 378.188C1945.57 383.136 1943.07 387.826 1940.66 392.568L1740.84 400.279C1716.37 401.055 1663.54 403.823 1640.3 402.184L1647.12 387.072Z"/><path fill="#DD8545" d="M100.169 441.248C137.68 437.425 176.774 436.711 214.554 434.77C276.98 431.241 339.435 428.249 401.913 425.795L408.729 439.04C431.937 470.053 446.902 483.101 484.513 495.631L317.858 506.702C305.072 507.544 291.473 508.117 278.79 509.37C213.089 515.856 149.469 517.018 108.203 454.994L100.169 441.248Z"/><path fill="#EDB88D" d="M100.169 441.248C137.68 437.425 176.774 436.711 214.554 434.77C276.98 431.241 339.435 428.249 401.913 425.795L408.729 439.04C397.365 441.026 373.651 441.751 361.577 442.414L275.088 446.973L180.992 451.892C157.01 453.289 132.146 455.454 108.203 454.994L100.169 441.248Z"/><path fill="#DD8545" d="M1306.98 612.065C1340.64 612.306 1377.42 615.194 1411.17 617.022C1473.6 620.48 1536.05 623.522 1598.52 626.148C1582.98 654.118 1564.46 668.663 1535.54 681.234C1501.01 692.885 1422.43 683.58 1383.34 681.934C1339.45 680.087 1293.3 676.649 1249.05 674.758L1252.83 663.402C1276.5 649.484 1291.17 633.856 1306.98 612.065Z"/><path fill="#DD8545" d="M1415.8 542.717C1471.25 543.85 1526.69 545.324 1582.13 547.141C1621.66 548.2 1669.45 548.602 1708.55 552.134C1689.84 583.736 1676 596.763 1641.36 609.616C1612.89 618.133 1565.58 613.966 1535.13 612.288L1472.63 609.186C1433.32 607.276 1390.55 606.03 1351.54 603.066C1385.02 584.88 1395.87 574.941 1415.8 542.717Z"/><path fill="#DD8545" d="M633.209 571.415L647.117 570.503C651.514 575.67 656.208 583.172 660.993 588.851C679.463 610.778 697.743 618.421 723.304 628.434L543.991 642.077C514.16 644.496 472.894 650.252 444.088 648.358C400.431 645.826 375.401 626.19 350.415 592.227C385.632 587.891 423.105 586.307 458.646 583.836L633.209 571.415Z"/><path fill="#DD8545" d="M1526.79 470C1622.98 469.561 1722.27 475.471 1818.79 476C1802.17 509.028 1783.6 521.938 1749.98 535.362C1718.28 543.746 1655.89 538.315 1621.53 537.302L1460.5 532.738C1494.26 516.417 1508.42 502.408 1526.79 470Z"/><path fill="#DD8545" d="M505.982 505.575C512.932 505.056 520.669 504.86 527.694 504.527C531.636 509.384 536.23 517.116 540.354 522.484C556.767 543.853 572.098 551.967 596.013 562.008C551.32 566.986 501.611 569.166 456.321 572.47C416.49 575.375 357.069 582.771 318.837 579.743C278.391 575.369 253.91 557.464 232.026 524.177C241.314 522.676 254.732 522.208 264.522 521.593L323.615 517.944C384.378 513.436 445.168 509.313 505.982 505.575Z"/><path fill="#E39B54" d="M1050.51 130.427C1085.68 126.568 1154.16 146.71 1159.77 189.103C1161.03 198.102 1158.49 207.22 1152.76 214.273C1138.87 231.702 1109.45 237.624 1088.66 240.115C1055.34 241.297 1023.07 234.79 996.231 213.808C978.723 200.118 967.827 174.968 984.432 156.122C1000.84 137.498 1027 132.549 1050.51 130.427Z"/><path fill="#1C3C60" d="M1054.6 137.455C1081.01 136.439 1110.15 143.335 1131.27 160.122C1146.76 172.435 1158.16 194.749 1142.79 212.037C1129.15 227.373 1104.39 230.779 1084.95 232.161C1056.11 232.346 1027.82 227.864 1004.54 209.478C989.14 197.318 979.094 176.281 993.879 159.49C1008.75 142.608 1033.43 139.078 1054.6 137.455Z"/><path fill="#FEFEFE" d="M1045.86 148.654L1057.73 147.872C1063.39 148.262 1069.65 148.566 1075.25 149.122C1087.62 151.197 1096.08 153.181 1107.55 158.231C1137.05 171.215 1156.83 200.639 1114.92 215.659L1101.26 219.523L1089.99 221.109L1073.02 221.093C1055.69 221.25 1038.59 217.086 1023.27 208.977C984.47 188.347 990.908 162.664 1030.78 151.485L1045.86 148.654Z"/><path fill="#7FA7C6" d="M1073.02 221.093C1055.69 221.25 1038.59 217.086 1023.27 208.977C984.47 188.347 990.908 162.664 1030.78 151.485C1041.46 167.952 1051.82 184.621 1061.86 201.483C1063.96 204.991 1071.74 217.791 1073.02 221.093Z"/><path fill="#7FA7C6" d="M1075.25 149.122C1087.62 151.197 1096.08 153.181 1107.55 158.231C1137.05 171.215 1156.83 200.639 1114.92 215.659C1113.63 210.959 1080.14 157.198 1075.25 149.122Z"/><path fill="#FEFEFE" d="M1057.73 147.872C1063.39 148.262 1069.65 148.566 1075.25 149.122C1080.14 157.198 1113.63 210.959 1114.92 215.659L1101.26 219.523C1088.01 194.845 1072.8 171.459 1057.73 147.872Z"/><path fill="#6D8CA5" d="M1045.86 148.654L1057.73 147.872C1072.8 171.459 1088.01 194.845 1101.26 219.523L1089.99 221.109C1074.38 197.956 1060.72 172.54 1045.86 148.654Z"/><path fill="#DD8545" d="M727.333 639.584L739.999 638.476C739.867 651.366 740.122 660.625 745.589 672.719C749.693 681.797 765.571 688.695 764.575 697.857C755.608 701.158 693.709 705.174 681.082 706.18L613.067 711.556C573.01 714.693 558.844 717.523 520.766 702.216C497.6 690.284 486.6 680.288 471.537 659.464C555.162 650.992 643.305 646.062 727.333 639.584Z"/><path fill="#E39B54" d="M859.22 141.447C902.079 142.313 948.359 164.804 912.026 214.236C893.153 239.913 858.404 250.532 827.616 254.057C782.955 253.647 732.969 233.719 772.642 179.847C790.853 155.118 829.31 144.047 859.22 141.447Z"/><path fill="#1C3C60" d="M854.796 149.407C868.225 148.077 888.024 151.854 899.458 159.108C929.876 178.407 910.079 212.861 886.106 227.227C867.802 238.195 851.808 241.96 831.173 246.011C812.929 246.147 794.93 245.49 779.558 234.204C762.827 222.005 766.052 200.169 778.13 185.845C797.782 162.538 825.325 152.537 854.796 149.407Z"/><path fill="#FEFEFE" d="M836.235 163.279C890.714 149.158 933.838 186.681 877.821 219.627C873.58 221.769 869.274 223.898 865.063 226.082L853.22 230.477C849.061 231.642 842.645 233.229 838.781 234.717C794.564 241.059 752.954 220.651 799.928 179.641L812.439 172.516C816.555 169.867 819.678 168.937 824.229 167.32L836.235 163.279Z"/><path fill="#7FA7C6" d="M836.235 163.279C890.714 149.158 933.838 186.681 877.821 219.627C871.319 210.003 843.522 168.213 836.235 163.279Z"/><path fill="#7FA7C6" d="M838.781 234.717C794.564 241.059 752.954 220.651 799.928 179.641L825.076 215.184C828.669 220.344 835.058 230.244 838.781 234.717Z"/><path fill="#FEFEFE" d="M812.439 172.516C816.773 178.608 852.928 228.252 853.22 230.477C849.061 231.642 842.645 233.229 838.781 234.717C835.058 230.244 828.669 220.344 825.076 215.184L799.928 179.641L812.439 172.516Z"/><path fill="#6D8CA5" d="M812.439 172.516C816.555 169.867 819.678 168.937 824.229 167.32C826.351 172.94 859.502 219.121 865.063 226.082L853.22 230.477C852.928 228.252 816.773 178.608 812.439 172.516Z"/><path fill="#E39B54" d="M1061.42 579.088C1086.01 588.26 1113.37 600.133 1137.94 610.118C1134.55 627.847 1134.18 650.408 1129.97 667.504C1124.44 689.944 1084.9 664.611 1085.57 699.143C1070.14 706.791 1056.06 716.117 1076.17 729.902C1071.21 735.655 1070.35 737.207 1066.75 743.886C1072.9 751.864 1074.72 751.553 1084.42 754.366C1093.78 770.296 1105.01 765.954 1121.6 763.586L1119.6 775.716L1113.67 816.309C1086.75 806.964 1059.72 797.948 1032.58 789.263C1034.63 767.585 1038.47 742.28 1041.37 720.618C1047.71 673.394 1054.4 626.216 1061.42 579.088Z"/><path fill="#C67C48" d="M1066.75 743.886C1072.9 751.864 1074.72 751.553 1084.42 754.366C1093.78 770.296 1105.01 765.954 1121.6 763.586L1119.6 775.716C1108.63 768.099 1093.63 783.394 1079.86 759.609C1071.39 755.407 1067.04 754.401 1066.75 743.886Z"/><path fill="#DD8545" d="M931.289 216.255C938.3 217.268 962.757 214.484 970.692 213.518C979.251 213.698 985.052 219.167 991.673 224.362C1020.55 247.024 1053.16 251.074 1088.49 252.017C1112.01 248.704 1125.91 246.798 1147.06 234.863C1193.43 246.668 1233.67 258.121 1277.48 278.25C1278.38 282.756 1280.04 292.074 1281.38 295.98C1286.23 300.514 1290.08 303.267 1291.79 309.719L1291.03 310.915C1286.19 310.044 1281.95 304.899 1277.47 303.047C1167.65 257.641 1045.19 249.968 927.84 259.302C909.623 260.751 891.102 262.003 873.022 264.566C828.291 270.876 784.093 280.509 740.794 293.387C743.832 289.384 746.926 285.425 750.077 281.511C757.615 273.284 763.823 266.735 771.923 259.003C779.099 255.999 786.774 260.541 794.469 262.412C812.297 266.726 830.874 266.92 848.788 262.977C878.548 256.29 901.308 243.354 922.083 221.382C924.645 218.672 927.807 217.364 931.289 216.255Z"/><path fill="#C67C48" d="M1147.06 234.863C1193.43 246.668 1233.67 258.121 1277.48 278.25C1278.38 282.756 1280.04 292.074 1281.38 295.98C1234.97 276.788 1200.42 264.454 1149.93 257.977C1135.93 256.281 1121.9 254.847 1107.85 253.676C1101.92 253.159 1093.71 253.253 1088.49 252.017C1112.01 248.704 1125.91 246.798 1147.06 234.863Z"/><path fill="#EDB88D" d="M771.923 259.003C780.409 264.518 787.275 266.741 796.855 270.045C786.904 272.583 758.484 280.673 750.077 281.511C757.615 273.284 763.823 266.735 771.923 259.003Z"/><path fill="#EDB88D" d="M871.388 130.53C949.685 96.8001 1072.02 95.0253 1151.65 127.162C1177.08 137.422 1215.03 160.428 1229.89 183.727C1235.09 187.891 1242.74 199.919 1246.39 205.516C1220.41 196.205 1197.37 189.595 1170.78 182.505C1158.88 147.4 1131.7 136.768 1099.46 124.886C1070.14 120.265 1059.65 117.789 1028.76 121.592C1004.03 127.993 985.633 134.233 969.884 155.884C957.531 156.146 942.099 156.967 929.844 158.794C915.954 143.891 905.902 136.941 885.494 132.044L871.388 130.53Z"/><path fill="#DD8545" d="M885.494 132.044C916.555 123.794 979.759 117.067 1011.73 116.914C1023.57 118.51 1019.48 117.096 1028.76 121.592C1004.03 127.993 985.633 134.233 969.884 155.884C957.531 156.146 942.099 156.967 929.844 158.794C915.954 143.891 905.902 136.941 885.494 132.044Z"/><path fill="#DD8545" d="M1109.54 123.043C1142.32 131.161 1173.49 144.747 1201.76 163.228C1209.87 168.58 1222.57 179.818 1229.89 183.727C1235.09 187.891 1242.74 199.919 1246.39 205.516C1220.41 196.205 1197.37 189.595 1170.78 182.505C1158.88 147.4 1131.7 136.768 1099.46 124.886C1101.83 124.113 1106.85 123.465 1109.54 123.043Z"/><path fill="#E39B54" d="M1011.73 116.914C1032.94 113.059 1088.98 117.17 1109.54 123.043C1106.85 123.465 1101.83 124.113 1099.46 124.886C1070.14 120.265 1059.65 117.789 1028.76 121.592C1019.48 117.096 1023.57 118.51 1011.73 116.914Z"/><path fill="#FEFEFE" d="M1204.35 563.163C1210.09 563.407 1214.05 564.426 1219.58 565.656L1227.41 577.263C1218.65 573.859 1210.4 570.942 1200.79 572.536C1181.38 575.759 1172.64 597.043 1176.33 614.721C1178.72 625.806 1185.5 635.447 1195.13 641.439C1204.28 647.193 1218.2 650.033 1228.92 647.584C1238.69 645.352 1242.65 638.1 1247.25 630.247C1246.21 657.433 1241.15 667.36 1223.66 687.618C1207.24 703.277 1193.34 712.522 1174.61 724.607C1168.97 700.868 1165.87 691.808 1151.39 672.389C1154.65 668.131 1169.25 643.508 1169.22 640.52L1164.78 639.085C1164.4 638.456 1163.93 637.769 1163.81 637.017C1159.84 612.687 1165.22 583.718 1187.44 569.557C1193.09 565.961 1198 564.681 1204.35 563.163Z"/><path fill="#6D8CA5" d="M1172.4 194.526C1214.03 205.691 1271.75 222.581 1309.76 245.797C1322.18 253.381 1307.39 268.709 1300.62 275.896C1285.46 271.545 1267.45 260.832 1251.99 254.981C1220.81 243.184 1190.13 234.492 1158.13 225.595C1167.9 216.147 1170.64 207.388 1172.4 194.526Z"/><path fill="#C67C48" d="M800.466 784.322C809.218 784.082 828.669 785.947 837.821 786.594L908.6 791.567L978.225 796.178C989.411 796.866 1016.56 798.076 1026.15 800.115C1043.01 803.698 1079.55 814.438 1094.95 821.648C1089.24 822.107 1070.86 820.425 1064.55 819.956L1005.66 815.636L923.211 810.268C911.036 809.495 882.648 808.26 872.451 806.101C853.99 802.194 817.167 792.186 800.466 784.322Z"/><path fill="#FEFEFE" d="M1182.9 786.002L1184.39 786.917C1187.4 794.416 1181.69 830.992 1180.5 840.06L1076.75 838C1075.1 837.998 1075.12 837.782 1073.56 837.023C1072.09 833.613 1072.07 834.884 1073.06 832.028C1078.04 829.486 1115.72 830.975 1123.64 831.089C1124.08 821.897 1125.61 811.398 1127.3 802.362C1147.31 799.588 1164.57 794.224 1182.9 786.002Z"/><path fill="#FEFEFE" d="M1112.06 688.388C1115.59 687.701 1123.42 688.016 1127.31 688.054C1139.61 707.907 1143.15 719.236 1144.04 742.188C1136.94 746.182 1105.25 761.028 1098.91 752.978C1099.21 748.078 1103.62 746.35 1105.04 740.921L1104.02 739.604L1100.78 740.06C1095.18 741.79 1089.7 744.034 1084.05 742.289C1079.69 735.679 1095.79 728.962 1096.68 723.379C1091.63 719.549 1078.56 722.926 1078.69 715.573C1084.84 707.875 1106.41 707.421 1110.21 698.705C1105.65 694.835 1098.32 697.033 1095.68 693.441C1099.19 688.894 1106.66 688.969 1112.06 688.388Z"/><path fill="#E39B54" d="M1233.98 633.454C1214.23 644.903 1190.22 634.095 1185.46 612.013C1183.76 604.35 1185.25 596.323 1189.61 589.791C1199.77 574.399 1215.52 580.271 1228 588.665C1240.92 602.171 1248.08 617.743 1233.98 633.454Z"/><path fill="#FEFEFE" d="M1233.98 633.454C1214.23 644.903 1190.22 634.095 1185.46 612.013C1183.76 604.35 1185.25 596.323 1189.61 589.791C1199.77 574.399 1215.52 580.271 1228 588.665C1225.79 590.73 1224.72 592.016 1221.78 592.971C1218.99 590.453 1216.06 587.306 1212.5 586.417L1211.17 587.163C1210.51 591.525 1211.8 594.597 1209.84 596.461L1192.12 595.636C1196.1 611.282 1199.08 622.408 1214.17 631.365C1215.44 632.118 1216.74 632.841 1218.05 633.534C1219.46 627.72 1220.96 622.127 1221.63 616.175C1225.34 618.96 1228.73 621.757 1232.98 623.631C1233.1 626.933 1233.03 630.313 1233.98 633.454Z"/><path fill="#E3E2DF" d="M1228 588.665C1240.92 602.171 1248.08 617.743 1233.98 633.454C1233.03 630.313 1233.1 626.933 1232.98 623.631C1235.81 613.657 1227.64 600.732 1221.78 592.971C1224.72 592.016 1225.79 590.73 1228 588.665Z"/><path fill="#BEE0F7" d="M1221.12 598.848C1223.75 599.569 1224.13 600.351 1224.67 602.535C1222.17 607.932 1212.79 612.42 1207.5 615.428L1206.42 615.507C1203.91 613.142 1204.48 614.339 1204.15 611.063C1206.46 605.852 1216.01 601.576 1221.12 598.848Z"/><path fill="#7FA7C6" d="M1233.6 693.845L1234.46 694.855C1236.85 730.993 1202.42 767.057 1171.12 778.607C1163.35 781.475 1137.56 791.471 1130.37 788.623L1129.53 786.236C1130.55 777.814 1131.49 769.381 1132.33 760.939L1144.44 755.308C1144.71 755.585 1144.97 755.861 1145.24 756.136C1166 777.281 1200.59 742.338 1212.67 725.471C1220.91 713.963 1222.63 704.677 1233.6 693.845Z"/><path fill="#BEE0F7" d="M1025.12 828.592C1036.65 829.317 1048.18 829.808 1059.72 830.063C1060.91 844.674 1063.38 859.164 1065.71 873.622C1066.31 877.345 1067.08 881.024 1066.98 884.81C1064.78 886.549 1064.4 886.055 1061.25 886.307L1016.13 886.164C1021.7 865.922 1023.03 849.26 1025.12 828.592Z"/><path fill="#FEFEFE" d="M775.217 614.019C775.655 613.995 776.093 613.979 776.531 613.971C783.108 613.87 786.208 614.454 791.033 619.083L790.932 620.563C788.435 622.23 779.053 623.211 774.989 624.227L774.398 625.804C779.299 632.647 794.544 634.277 795.276 641.866L793.708 643.377C785.857 645.718 780.236 640.45 773.904 646.067C774.285 652.885 792.493 651.692 797.257 658.848C796.613 667.171 782.74 666.553 776.811 666.207C772.964 664.922 769.338 662.975 765.854 663.751L764.406 666.075C766.971 673.587 775.787 674.053 782.494 680.24L782.149 681.641C756.013 690.275 731.442 633.801 775.217 614.019Z"/><path fill="#FEFEFE" d="M900.713 820.438C922.841 822.804 950.836 822.542 973.465 825.008C981.448 825.878 1004.3 825.751 1010.73 828.113C1012.67 830.434 1012.09 833.704 1011.97 836.835L902.542 835.997C901.525 831.582 899.622 824.564 900.713 820.438Z"/><path fill="#5B7383" d="M748.206 224.909C749.352 226.927 750.984 230.706 752.026 232.947C755.718 238.119 765.236 247.753 764.93 251.936L763.043 253.599C755.361 260.422 747.039 269.204 740.308 276.895C734.065 269.73 722.049 257.306 721.287 248.165C726.393 235.851 737.121 231.141 748.206 224.909Z"/><path fill="#6D8CA5" d="M748.206 224.909C749.352 226.927 750.984 230.706 752.026 232.947L747.415 235.202C742.136 238.372 726.1 249.276 721.287 248.165C726.393 235.851 737.121 231.141 748.206 224.909Z"/><path fill="#4E6570" d="M747.415 235.202L752.026 232.947C755.718 238.119 765.236 247.753 764.93 251.936L763.043 253.599C756.77 247.698 752.57 242.065 747.415 235.202Z"/><path fill="#FEFEFE" d="M910.61 866.933L1007.77 867.07L1005.92 877.618C996.841 879.983 927.757 878.187 915.566 877.986L910.61 866.933Z"/><path fill="#E3E2DF" d="M924.087 891.478L923.176 889.458C925.509 887.618 989.668 888.693 997.993 889.045C999.308 890.505 998.884 889.67 999.223 891.676C976.139 914.515 947.358 912.307 924.087 891.478Z"/><path fill="#FEFEFE" d="M924.087 891.478L923.176 889.458C925.509 887.618 989.668 888.693 997.993 889.045C999.308 890.505 998.884 889.67 999.223 891.676C967.838 894.625 955.745 895.217 924.087 891.478Z"/><path fill="#E3E2DF" d="M1088.98 894.771L1086.44 891.693L1086.83 890.387C1094.43 889.469 1154.22 890.568 1160.54 891.926L1161.13 892.949L1159.02 895.673C1136.24 913.962 1111.31 913.693 1088.98 894.771Z"/><path fill="#FEFEFE" d="M1088.98 894.771L1086.44 891.693L1086.83 890.387C1094.43 889.469 1154.22 890.568 1160.54 891.926L1161.13 892.949L1159.02 895.673C1135.88 896.821 1112.14 895.602 1088.98 894.771Z"/><path fill="#FEFEFE" d="M1077.14 868.945C1089.91 868.976 1162.43 869.409 1170.57 871.673C1171.63 875.294 1170.77 875.51 1169.41 879.827C1142.96 881.232 1106.66 880.068 1079.48 879.928L1077.14 868.945Z"/><path fill="#DD8545" d="M1135.41 560.557C1145.57 558.846 1154.25 556.283 1164.08 553.426L1151.75 573.684C1148.12 581.957 1143.95 590.956 1140.78 599.34L1119.79 591.051C1121.97 586.319 1124.28 580.989 1126.77 576.466L1135.41 560.557Z"/><path fill="#C67C48" d="M1135.41 560.557C1145.57 558.846 1154.25 556.283 1164.08 553.426L1151.75 573.684L1150.36 572.214C1142.22 572.496 1134.51 575.933 1126.77 576.466L1135.41 560.557Z"/><path fill="#7FA7C6" d="M1073.9 849.053C1095.23 849.726 1116.58 850.078 1137.92 850.108C1148.04 850.222 1166.49 850.172 1175.95 851.601C1177.7 854.507 1176.99 854.851 1176.78 858.925C1152.72 859.381 1128.26 857.75 1104.17 857.845C1095.13 857.881 1085.73 857.622 1076.76 856.58C1074.3 854.055 1074.8 853.111 1073.9 849.053Z"/><path fill="#7FA7C6" d="M905.075 847.298C934.816 846.996 978.115 846.922 1008.75 848.377C1010.23 848.447 1011.19 851.178 1012.04 852.828C1011.71 853.138 1011.4 853.466 1011.05 853.755C1007.6 856.607 920.113 855.874 908.488 854.614C905.597 851.787 906.312 851.769 905.075 847.298Z"/><path fill="#E3E2DF" d="M1253.86 610.55L1293.83 612.038C1288.48 618.28 1282.68 624.351 1277.06 630.366C1270.86 636.142 1264.54 641.167 1257.97 646.475C1257.89 631.815 1256.95 624.912 1253.86 610.55Z"/><path fill="#6D8CA5" d="M958.725 165.479C960.044 165.208 961.311 165.452 962.664 165.595C966.804 170.798 963.248 179.325 965.38 189.742C958.242 189.951 949.38 190.937 942.138 191.554C941.391 191.651 939.499 191.562 938.649 191.547C935.093 188.709 934.463 173.226 933.439 167.162C940.949 167.097 951.05 166.056 958.725 165.479Z"/><path fill="#7FA7C6" d="M1115.61 563.461C1117.32 562.919 1117.5 563.153 1119.22 563.65C1120.77 568.26 1112.16 582.109 1109.55 586.918L1080.35 574.976C1074.47 572.888 1067.66 569.832 1061.81 567.365C1076.65 565.393 1099.66 564.737 1115.61 563.461Z"/><path fill="#DD8545" d="M1141.11 678.496C1152.41 685.892 1162.21 712.398 1162.48 725.702C1162.58 730.756 1161.91 732.23 1158.47 735.739C1151.7 733.734 1152.46 712.396 1149.18 706.021C1145.48 698.848 1140.72 691.797 1137.85 684.358C1138.18 680.556 1137.97 681.763 1141.11 678.496Z"/><path fill="#DD8545" d="M1202.54 718.955L1202.32 721.559C1194.23 734.723 1171.71 747.635 1157.33 752.621L1157.06 749.607C1158.95 747.14 1196.62 723.084 1202.54 718.955Z"/><path fill="#7FA7C6" d="M1178.3 549.294C1190.77 547.533 1194.97 547.317 1207.38 551.782C1192.31 554.479 1185.01 555.609 1172.79 565.649C1171.18 565.879 1169.8 565.288 1168.21 564.823C1171.51 559.758 1175.14 554.403 1178.3 549.294Z"/><path fill="#7FA7C6" d="M1147.55 630.582C1156.8 637.974 1151.23 651.468 1146.42 659.612L1145.11 660.568L1144.02 659.234C1143.36 651.386 1146 638.452 1147.55 630.582Z"/><path fill="#6D8CA5" d="M1172.79 565.649C1163.58 575.478 1156.82 587.123 1154.1 600.353C1153.04 605.53 1153.27 613.754 1150.01 617.387L1149 615.988C1147.27 603.127 1160.98 575.327 1168.21 564.823C1169.8 565.288 1171.18 565.879 1172.79 565.649Z"/><path fill="#6D8CA5" d="M958.392 199.383C962.645 198.838 963.421 198.896 967.678 199.51L967.479 200.466C959.775 203.855 951.194 203.86 942.888 204.214C939.915 204.665 937.815 205.059 935.293 203.925C938.911 200.513 953.434 199.706 958.392 199.383Z"/></svg>