<svg width="512" height="512" viewBox="0 0 512 512" fill="none" xmlns="http://www.w3.org/2000/svg">
<path d="M51.0315 231.177C57.3961 225.423 76.6621 222.596 85.3283 220.583C154.75 204.463 226.425 200.628 297.494 204.793C343.388 207.481 393.686 217.148 437.419 231.673C444.585 234.053 455.439 237.405 461.345 242.394C462.661 243.501 462.921 246.487 463.157 248.256C467.633 280.419 470.721 306.582 461.646 338.868C430.928 458.391 285.518 441.542 190.915 436.699C165.921 435.419 137.922 434.222 113.476 429.277C92.2454 424.982 59.9244 397.475 52.58 377.135C52.2916 376.672 52.0121 376.203 51.7432 375.728C34.7462 345.811 33.4699 291.813 41.842 259.249C44.0884 250.512 48.5146 240.487 51.0315 231.177Z" fill="#1C3C60"/>
<path d="M52.58 377.135C55.3674 379.037 63.2528 388.855 67.0087 392.241C104.838 426 167.495 424.583 216.489 423.803C286.477 422.691 384.586 430.677 436.996 374.673C441.164 370.225 444.203 365.507 447.916 361.208C453.131 355.185 456.519 343.972 461.646 338.868C430.928 458.391 285.518 441.542 190.915 436.699C165.921 435.419 137.922 434.222 113.476 429.277C92.2454 424.982 59.9244 397.475 52.58 377.135Z" fill="#1C3C60"/>
<path d="M51.0315 231.177C57.3961 225.423 76.6621 222.596 85.3283 220.583C154.75 204.463 226.425 200.628 297.494 204.793C343.388 207.481 393.686 217.148 437.419 231.673C444.585 234.053 455.439 237.405 461.345 242.394C462.661 243.501 462.921 246.487 463.157 248.256C419.05 226.442 348.718 211.353 299.85 209.017C281.578 208.144 260.219 208.621 241.558 208.497C214.48 208.317 189.229 207.468 162.347 211.698C139.99 215.216 117.661 218.332 95.3463 222.405C83.5027 224.567 63.1245 230.501 51.7553 231.142L51.0315 231.177Z" fill="#1C3C60"/>
<path d="M239.531 212.112C240.538 212.031 241.55 211.971 242.557 211.933C286.843 210.356 334.061 209.134 368.565 241.68C386.187 258.3 394.978 281.053 395.668 305.066C396.407 329.81 387.105 353.801 369.865 371.569C339.431 403.459 305.447 403.581 264.46 404.533L207.517 405.799C190.807 405.828 172.953 406.585 156.112 406.767C125.949 407.807 102.514 406.707 79.4642 384.86C43.6424 350.909 40.8883 284.26 74.8212 248.165C80.9412 241.645 88.1573 236.247 96.141 232.217C131.868 214.593 199.372 213.274 239.531 212.112Z" fill="#1C3C60"/>
<path d="M263.217 220.153C263.542 220.136 263.867 220.122 264.192 220.111C297.916 218.905 335.995 224.034 361.505 248.068C377.088 262.651 386.138 282.898 386.618 304.235C387.024 327.152 378.323 349.293 362.423 365.803C332.193 397.345 291.888 394.766 252.03 395.677L183.787 397.137L182.698 397.184C164.843 397.926 143.563 398.707 126.046 396.932C60.3695 390.276 40.3788 298.446 81.2459 254.951C88.5894 247.159 97.4961 241.007 107.383 236.897C143.58 221.976 222.056 221.312 263.217 220.153Z" fill="#1C3C60"/>
<path d="M242.468 226.622L245.644 226.513C282.374 225.281 325.75 223.89 354.429 250.881C369.605 265.205 378.371 285.038 378.745 305.902C379.306 327.006 371.466 347.47 356.948 362.797C330.324 390.772 294.195 389.002 258.578 389.795L203.047 391.166C189.501 391.075 174.95 391.672 161.362 392.101C134.666 392.944 111.758 393.832 90.7448 374.713C74.6554 360.075 67.0599 338.241 66.0696 316.885C65.1239 296.485 70.6964 274.972 84.7636 259.686C91.294 252.632 99.2347 247.029 108.07 243.24C139.674 229.725 207.426 228.18 242.468 226.622Z" fill="#1C3C60"/>
<path d="M79.5755 285.869C84.6174 271.757 95.2668 259.504 108.876 253.026C144.729 235.961 255.271 232.432 295.186 236.465C304.196 237.375 313.247 239.105 321.794 242.164C340.211 248.756 355.631 261.666 364.024 279.459C368.801 289.596 371.401 302.278 369.166 313.404C368.59 329.449 363.471 341.032 352.991 353.21C326.766 383.674 286.396 379.42 250.243 380.673C239.276 381.053 228.295 381.022 217.326 381.359C190.235 381.525 161.829 384.543 134.822 383.115C128.701 382.81 122.651 381.663 116.844 379.709C79.4633 366.892 67.7668 320.117 79.5755 285.869Z" fill="#1C3C60"/>
<path d="M79.5755 285.869C84.6174 271.757 95.2668 259.504 108.876 253.026C144.729 235.961 255.271 232.432 295.186 236.465C304.196 237.375 313.247 239.105 321.794 242.164C340.211 248.756 355.631 261.666 364.024 279.459C368.801 289.596 371.401 302.278 369.166 313.404C366.64 297.013 361.546 279.84 349.384 267.289C312.41 229.123 247.886 242.14 200.095 243.421C177.468 244.027 155.303 247.061 133.194 250.202C124.123 251.49 113.456 256.06 105.322 260.07C93.2259 266.076 87.7234 278.653 80.0085 285.492L79.5755 285.869Z" fill="#1C3C60"/>
<path d="M278.913 261.642C299.931 257.883 320.047 271.808 323.922 292.808C327.797 313.807 313.986 333.996 293.009 337.991C271.861 342.018 251.477 328.072 247.57 306.904C243.662 285.736 257.725 265.43 278.913 261.642Z" fill="#1C3C60"/>
<path d="M293.513 272.962C301.393 271.758 308.803 277.051 310.216 284.9C311.63 292.747 306.528 300.291 298.72 301.911C293.488 302.997 288.069 301.155 284.584 297.101C281.091 293.047 280.083 287.418 281.935 282.401C283.796 277.385 288.224 273.771 293.513 272.962Z" fill="#1C3C60"/>
<path d="M126.285 267.008C147.367 263.679 167.122 278.166 170.283 299.274C173.443 320.382 158.798 340.021 137.666 343.013C116.771 345.971 97.4003 331.526 94.2749 310.655C91.1502 289.785 105.44 270.299 126.285 267.008Z" fill="#1C3C60"/>
<path d="M138.631 280.301C143.668 278.6 149.231 279.745 153.185 283.299C157.139 286.853 158.87 292.262 157.714 297.451C156.557 302.64 152.692 306.802 147.604 308.341C139.909 310.666 131.773 306.39 129.323 298.734C126.874 291.08 131.017 282.874 138.631 280.301Z" fill="#1C3C60"/>
<path d="M233.453 328.818C246.278 327.473 241.988 351.058 238.69 357.861C234.891 365.821 228.013 371.889 219.641 374.667C207.729 378.603 196.716 376.11 185.984 370.722C185.91 370.685 185.842 370.639 185.781 370.584C176.754 362.476 169.197 347.095 173.691 335.119C175.907 329.213 197.78 333.712 203.696 333.687C214.463 333.641 223.078 331.17 233.453 328.818Z" fill="#1C3C60"/>
<path d="M195.545 366.781C192.587 365.366 190.856 364.199 190.39 360.917C190.366 360.751 190.39 360.581 190.463 360.431C193.232 354.779 206.041 352.08 211.758 351.483C218.727 350.755 224.774 352.189 231.266 354.17C231.904 354.364 232.141 355.142 231.724 355.662L227.72 360.655C218.515 367.326 212.194 369.774 200.411 367.792C198.779 367.507 197.156 367.17 195.545 366.781Z" fill="#1C3C60"/>
<path d="M195.545 366.781C205.634 357.24 214.857 352.188 227.72 360.655C218.515 367.326 212.194 369.774 200.411 367.792C198.779 367.507 197.156 367.17 195.545 366.781Z" fill="#1C3C60"/>
<path d="M331.679 339.728C332.069 339.42 332.577 339.499 332.737 339.97C332.777 340.085 332.814 340.2 332.848 340.308C332.922 340.541 332.908 340.797 332.796 341.015C330.776 344.932 326.579 346.805 322.672 348.796C322.418 348.925 322.11 348.881 321.904 348.684C321.701 348.49 321.641 348.189 321.807 347.963C323.205 346.051 329.037 341.814 331.679 339.728Z" fill="#1C3C60"/>
<path d="M94.7473 357.261C94.1337 356.634 94.6837 355.755 95.5141 356.038C98.4189 357.028 102.352 358.79 105.37 360.268C106.248 360.698 105.939 361.899 104.964 361.822C100.784 361.49 97.8031 360.384 94.7473 357.261Z" fill="#1C3C60"/>
<path d="M339.743 346.798C340.038 346.621 340.417 346.679 340.645 346.937C340.809 347.124 340.867 347.386 340.772 347.616C339.486 350.727 335.025 352.799 331.903 354.31C331.507 354.502 331.03 354.357 330.81 353.976C330.635 353.674 330.664 353.295 330.898 353.037C333.153 350.557 336.778 348.574 339.743 346.798Z" fill="#1C3C60"/>
<path d="M318.953 339.891C319.545 339.559 320.286 339.99 320.283 340.669C320.283 340.793 320.257 340.917 320.201 341.028C319.235 342.945 317.209 343.869 315.177 344.821C314.681 345.053 314.097 344.734 314.032 344.19C314.013 344.027 314.043 343.861 314.128 343.72C315.145 342.051 317.078 340.942 318.953 339.891Z" fill="#1C3C60"/>
<path d="M282.472 93.3821C311.045 90.2469 366.68 106.611 371.238 141.052C372.262 148.363 370.198 155.771 365.543 161.501C354.258 175.661 330.357 180.472 313.466 182.496C286.396 183.457 260.179 178.17 238.374 161.124C224.15 150.001 215.297 129.569 228.788 114.258C242.118 99.1268 263.371 95.1061 282.472 93.3821Z" fill="#1C3C60"/>
<path d="M285.795 99.0919C307.251 98.2665 330.925 103.869 348.084 117.507C360.668 127.511 369.93 145.639 357.443 159.685C346.362 172.144 326.246 174.911 310.452 176.034C287.021 176.184 264.038 172.543 245.124 157.606C232.613 147.727 224.451 130.635 236.463 116.994C248.545 103.278 268.595 100.41 285.795 99.0919Z" fill="#1C3C60"/>
<path d="M278.694 108.19L288.337 107.555C292.936 107.872 298.022 108.119 302.571 108.571C312.621 110.256 319.494 111.868 328.813 115.971C352.78 126.52 368.85 150.425 334.801 162.627L323.703 165.767L314.547 167.055L300.76 167.042C286.68 167.17 272.788 163.787 260.341 157.199C228.819 140.438 234.049 119.573 266.442 110.49L278.694 108.19Z" fill="#1C3C60"/>
<path d="M300.76 167.042C286.68 167.17 272.788 163.787 260.341 157.199C228.819 140.438 234.049 119.573 266.442 110.49C275.119 123.869 283.536 137.411 291.693 151.11C293.399 153.96 299.72 164.36 300.76 167.042Z" fill="#1C3C60"/>
<path d="M302.571 108.571C312.621 110.256 319.494 111.868 328.813 115.971C352.78 126.52 368.85 150.425 334.801 162.627C333.753 158.809 306.544 115.132 302.571 108.571Z" fill="#1C3C60"/>
<path d="M288.337 107.555C292.936 107.872 298.022 108.119 302.571 108.571C306.544 115.132 333.753 158.809 334.801 162.627L323.703 165.767C312.938 145.717 300.581 126.718 288.337 107.555Z" fill="#1C3C60"/>
<path d="M278.694 108.19L288.337 107.555C300.581 126.718 312.938 145.717 323.703 165.767L314.547 167.055C301.865 148.245 290.767 127.596 278.694 108.19Z" fill="#1C3C60"/>
<path d="M127.061 102.335C161.881 103.039 199.481 121.311 169.963 161.471C154.63 182.332 126.398 190.959 101.385 193.823C65.1012 193.49 24.4909 177.3 56.7225 133.533C71.5178 113.442 102.761 104.447 127.061 102.335Z" fill="#1C3C60"/>
<path d="M123.467 108.802C134.377 107.722 150.463 110.79 159.752 116.684C184.465 132.363 168.381 160.354 148.904 172.026C134.06 180.921 121.085 183.985 104.362 187.269C104.305 187.281 104.245 187.287 104.186 187.287C89.3948 187.395 74.8051 186.845 62.3413 177.694C48.7485 167.783 51.3686 150.043 61.1812 138.406C77.1471 119.47 99.524 111.345 123.467 108.802Z" fill="#1C3C60"/>
<path d="M108.388 120.072C152.648 108.6 187.683 139.085 142.173 165.851C138.728 167.591 135.23 169.321 131.808 171.096L122.187 174.666C118.808 175.613 113.595 176.902 110.456 178.111C74.5327 183.263 40.7273 166.683 78.8905 133.365L89.0549 127.577C92.3989 125.425 94.9361 124.669 98.6335 123.355L108.388 120.072Z" fill="#1C3C60"/>
<path d="M108.388 120.072C152.648 108.6 187.683 139.085 142.173 165.851C136.891 158.032 114.308 124.081 108.388 120.072Z" fill="#1C3C60"/>
<path d="M110.456 178.111C74.5327 183.263 40.7273 166.683 78.8905 133.365L99.3216 162.242C102.241 166.434 107.431 174.477 110.456 178.111Z" fill="#1C3C60"/>
<path d="M89.0549 127.577C92.576 132.526 121.95 172.858 122.187 174.666C118.808 175.613 113.595 176.902 110.456 178.111C107.431 174.477 102.241 166.434 99.3216 162.242L78.8905 133.365L89.0549 127.577Z" fill="#1C3C60"/>
<path d="M89.0549 127.577C92.3989 125.425 94.9361 124.669 98.6335 123.355C100.357 127.921 127.29 165.44 131.808 171.096L122.187 174.666C121.95 172.858 92.576 132.526 89.0549 127.577Z" fill="#1C3C60"/>
<path d="M185.405 163.178C185.542 163.134 185.677 163.122 185.819 163.139C191.754 163.879 211.126 161.678 217.562 160.896C217.606 160.89 217.648 160.888 217.693 160.89C224.609 161.063 229.309 165.491 234.671 169.698C258.131 188.109 284.625 191.4 313.328 192.166C332.312 189.492 343.582 187.946 360.577 178.418C360.79 178.299 361.045 178.263 361.282 178.324C398.643 187.842 431.123 197.102 466.429 213.276C466.705 213.403 466.904 213.652 466.963 213.95C467.711 217.755 468.994 224.84 470.038 227.883C473.877 231.471 476.944 233.687 478.384 238.645C478.458 238.898 478.415 239.172 478.273 239.395L478.219 239.48C478.013 239.805 477.629 239.977 477.258 239.876C473.581 238.874 470.309 235.049 466.861 233.624C377.64 196.735 278.15 190.501 182.81 198.085C168.01 199.262 152.963 200.279 138.274 202.361C102.889 207.353 67.9134 214.904 33.6232 224.957C32.7449 225.214 32.0469 224.203 32.6051 223.477C34.5066 221.006 36.4348 218.556 38.3899 216.128C44.5141 209.444 49.5576 204.123 56.1383 197.842C61.9683 195.401 68.2038 199.091 74.4554 200.611C88.9395 204.116 104.032 204.274 118.586 201.07C142.764 195.637 161.255 185.128 178.133 167.277C180.164 165.129 182.658 164.065 185.405 163.178Z" fill="#1C3C60"/>
<path d="M360.577 178.418C360.79 178.299 361.045 178.263 361.282 178.324C398.643 187.842 431.123 197.102 466.429 213.276C466.705 213.403 466.904 213.652 466.963 213.95C467.711 217.755 468.994 224.84 470.038 227.883C432.333 212.291 404.264 202.27 363.244 197.008C351.87 195.63 340.471 194.465 329.057 193.514C324.239 193.094 317.569 193.17 313.328 192.166C332.312 189.492 343.582 187.946 360.577 178.418Z" fill="#1C3C60"/>
<path d="M56.1383 197.842C62.1176 201.727 67.1069 203.602 73.4032 205.782C74.2913 206.089 74.2511 207.369 73.3428 207.611C63.5819 210.206 44.4936 215.519 38.3899 216.128C44.5141 209.444 49.5576 204.123 56.1383 197.842Z" fill="#1C3C60"/>
<path d="M140.532 93.8505C139.563 93.7466 139.355 92.4452 140.256 92.0766C203.962 66.0211 301.058 65.0691 364.641 90.7295C385.301 99.0651 416.133 117.756 428.206 136.685C431.797 139.561 436.827 147.054 440.076 152.029C440.572 152.789 439.812 153.745 438.956 153.443C419.081 146.425 401.162 141.291 380.674 135.823C380.368 135.741 380.12 135.506 380.017 135.206C370.263 107.073 348.284 98.4787 322.24 88.8804C298.42 85.1262 289.897 83.1146 264.801 86.2043C244.856 91.3668 229.982 96.4003 217.248 113.682C217.073 113.92 216.797 114.068 216.501 114.074C206.711 114.294 194.65 114.945 184.93 116.356C184.621 116.401 184.309 116.289 184.096 116.061C172.987 104.206 164.819 98.6339 148.407 94.6958L140.532 93.8505Z" fill="#1C3C60"/>
<path d="M148.407 94.6958C173.642 87.9932 224.991 82.528 250.966 82.4037C260.585 83.7004 257.262 82.5516 264.801 86.2043C244.856 91.3668 229.982 96.4003 217.248 113.682C217.073 113.92 216.797 114.068 216.501 114.074C206.711 114.294 194.65 114.945 184.93 116.356C184.621 116.401 184.309 116.289 184.096 116.061C172.987 104.206 164.819 98.6339 148.407 94.6958Z" fill="#1C3C60"/>
<path d="M330.43 87.3831C357.061 93.9784 382.385 105.016 405.352 120.031C411.941 124.379 422.259 133.509 428.206 136.685C431.797 139.561 436.827 147.054 440.076 152.029C440.572 152.789 439.812 153.745 438.956 153.443C419.081 146.425 401.162 141.291 380.674 135.823C380.368 135.741 380.12 135.506 380.017 135.206C370.263 107.073 348.284 98.4787 322.24 88.8804C324.166 88.2524 328.244 87.7259 330.43 87.3831Z" fill="#1C3C60"/>
<path d="M250.966 82.4037C268.197 79.2718 313.726 82.6117 330.43 87.3831C328.244 87.7259 324.166 88.2524 322.24 88.8804C298.42 85.1262 289.897 83.1146 264.801 86.2043C257.262 82.5516 260.585 83.7004 250.966 82.4037Z" fill="#1C3C60"/>
<path d="M381.349 146.523C381.431 145.959 381.978 145.587 382.529 145.735C416.267 154.807 462.527 168.442 493.095 187.112C502.952 193.131 491.715 205.153 486.062 211.149C485.819 211.407 485.458 211.506 485.118 211.405C472.918 207.773 458.534 199.257 446.161 194.574C421.347 185.186 396.924 178.218 371.5 171.143C370.795 170.947 370.569 170.055 371.077 169.528C377.815 162.551 379.986 155.875 381.349 146.523Z" fill="#1C3C60"/>
<path d="M36.0469 170.602C36.5025 170.349 37.0774 170.509 37.3152 170.973C38.1901 172.68 39.2545 175.127 39.9734 176.673C42.8647 180.723 50.1539 188.142 50.4534 191.715C50.4741 191.962 50.3529 192.192 50.1669 192.356L48.924 193.451C42.9522 198.755 36.5044 205.516 31.1684 211.564C30.7889 211.994 30.1204 211.996 29.7407 211.566C24.5205 205.653 15.5912 196.128 15 189.036C19.0218 179.337 27.3367 175.445 36.0469 170.602Z" fill="#1C3C60"/>
<path d="M36.0469 170.602C36.5025 170.349 37.0774 170.509 37.3152 170.973C38.1901 172.68 39.2545 175.127 39.9734 176.673L36.2272 178.505C31.9384 181.08 18.9102 189.939 15 189.036C19.0218 179.337 27.3367 175.445 36.0469 170.602Z" fill="#1C3C60"/>
<path d="M36.2272 178.505L39.9734 176.673C42.8647 180.723 50.1539 188.142 50.4534 191.715C50.4741 191.962 50.3529 192.192 50.1669 192.356L48.924 193.451C43.8276 188.657 40.4153 184.08 36.2272 178.505Z" fill="#1C3C60"/>
<path d="M207.902 121.86C208.845 121.666 209.755 121.796 210.709 121.909C210.96 121.939 211.195 122.064 211.341 122.272C214.191 126.332 211.853 132.709 213.106 140.462C213.2 141.043 212.771 141.587 212.184 141.612C206.598 141.842 199.935 142.574 194.427 143.044C193.902 143.112 192.681 143.067 191.914 143.046C191.705 143.04 191.5 142.972 191.356 142.821C188.86 140.229 188.249 129.639 187.524 124.323C187.445 123.745 187.887 123.222 188.469 123.209C194.43 123.075 202.038 122.301 207.902 121.86Z" fill="#1C3C60"/>
<path d="M207.632 149.404C210.903 148.985 211.642 149.005 214.645 149.431C214.932 149.472 215.126 149.747 215.067 150.031C215.034 150.19 214.926 150.323 214.777 150.387C208.579 153.038 201.699 153.045 195.036 153.329C193.163 153.613 191.717 153.869 190.207 153.541C189.548 153.398 189.433 152.614 190.033 152.306C194.146 150.192 204.017 149.64 207.632 149.404Z" fill="#1C3C60"/>
<path d="M51.0315 231.177C57.3961 225.423 76.6621 222.596 85.3283 220.583C154.75 204.463 226.425 200.628 297.494 204.793C343.388 207.481 393.686 217.148 437.419 231.673C444.585 234.053 455.439 237.405 461.345 242.394C462.661 243.501 462.921 246.487 463.157 248.256M51.0315 231.177C48.5146 240.487 44.0884 250.512 41.842 259.249C33.4699 291.813 34.7462 345.811 51.7432 375.728C52.0121 376.203 52.2916 376.672 52.58 377.135M51.0315 231.177L51.7553 231.142C63.1245 230.501 83.5027 224.567 95.3463 222.405C117.661 218.332 139.99 215.216 162.347 211.698C189.229 207.468 214.48 208.317 241.558 208.497C260.219 208.621 281.578 208.144 299.85 209.017C348.718 211.353 419.05 226.442 463.157 248.256M463.157 248.256C467.633 280.419 470.721 306.582 461.646 338.868M461.646 338.868C430.928 458.391 285.518 441.542 190.915 436.699C165.921 435.419 137.922 434.222 113.476 429.277C92.2454 424.982 59.9244 397.475 52.58 377.135M461.646 338.868C456.519 343.972 453.131 355.185 447.916 361.208C444.203 365.507 441.164 370.225 436.996 374.673C384.586 430.677 286.477 422.691 216.489 423.803C167.495 424.583 104.838 426 67.0087 392.241C63.2528 388.855 55.3674 379.037 52.58 377.135M79.5755 285.869C84.6174 271.757 95.2668 259.504 108.876 253.026C144.729 235.961 255.271 232.432 295.186 236.465C304.196 237.375 313.247 239.105 321.794 242.164C340.211 248.756 355.631 261.666 364.024 279.459C368.801 289.596 371.401 302.278 369.166 313.404M79.5755 285.869C67.7668 320.117 79.4633 366.892 116.844 379.709C122.651 381.663 128.701 382.81 134.822 383.115C161.829 384.543 190.235 381.525 217.326 381.359C228.295 381.022 239.276 381.053 250.243 380.673C286.396 379.42 326.766 383.674 352.991 353.21C363.471 341.032 368.59 329.449 369.166 313.404M79.5755 285.869L80.0085 285.492C87.7234 278.653 93.2259 266.076 105.322 260.07C113.456 256.06 124.123 251.49 133.194 250.202C155.303 247.061 177.468 244.027 200.095 243.421C247.886 242.14 312.41 229.123 349.384 267.289C361.546 279.84 366.64 297.013 369.166 313.404M195.545 366.781C192.587 365.366 190.856 364.199 190.39 360.917C190.366 360.751 190.39 360.581 190.463 360.431C193.232 354.779 206.041 352.08 211.758 351.483C218.727 350.755 224.774 352.189 231.266 354.17C231.904 354.364 232.141 355.142 231.724 355.662L227.72 360.655M195.545 366.781C197.156 367.17 198.779 367.507 200.411 367.792C212.194 369.774 218.515 367.326 227.72 360.655M195.545 366.781C205.634 357.24 214.857 352.188 227.72 360.655M278.694 108.19L288.337 107.555M278.694 108.19L266.442 110.49M278.694 108.19C290.767 127.596 301.865 148.245 314.547 167.055M288.337 107.555C292.936 107.872 298.022 108.119 302.571 108.571M288.337 107.555C300.581 126.718 312.938 145.717 323.703 165.767M302.571 108.571C312.621 110.256 319.494 111.868 328.813 115.971C352.78 126.52 368.85 150.425 334.801 162.627M302.571 108.571C306.544 115.132 333.753 158.809 334.801 162.627M334.801 162.627L323.703 165.767M323.703 165.767L314.547 167.055M314.547 167.055L300.76 167.042M300.76 167.042C286.68 167.17 272.788 163.787 260.341 157.199C228.819 140.438 234.049 119.573 266.442 110.49M300.76 167.042C299.72 164.36 293.399 153.96 291.693 151.11C283.536 137.411 275.119 123.869 266.442 110.49M108.388 120.072C152.648 108.6 187.683 139.085 142.173 165.851M108.388 120.072L98.6335 123.355M108.388 120.072C114.308 124.081 136.891 158.032 142.173 165.851M142.173 165.851C138.728 167.591 135.23 169.321 131.808 171.096M131.808 171.096L122.187 174.666M131.808 171.096C127.29 165.44 100.357 127.921 98.6335 123.355M122.187 174.666C118.808 175.613 113.595 176.902 110.456 178.111M122.187 174.666C121.95 172.858 92.576 132.526 89.0549 127.577M110.456 178.111C74.5327 183.263 40.7273 166.683 78.8905 133.365M110.456 178.111C107.431 174.477 102.241 166.434 99.3216 162.242L78.8905 133.365M78.8905 133.365L89.0549 127.577M89.0549 127.577C92.3989 125.425 94.9361 124.669 98.6335 123.355M313.328 192.166C284.625 191.4 258.131 188.109 234.671 169.698C229.309 165.491 224.609 161.063 217.693 160.89C217.648 160.888 217.606 160.89 217.562 160.896C211.126 161.678 191.754 163.879 185.819 163.139C185.677 163.122 185.542 163.134 185.405 163.178C182.658 164.065 180.164 165.129 178.133 167.277C161.255 185.128 142.764 195.637 118.586 201.07C104.032 204.274 88.9395 204.116 74.4554 200.611C68.2038 199.091 61.9683 195.401 56.1383 197.842M313.328 192.166C332.312 189.492 343.582 187.946 360.577 178.418C360.79 178.299 361.045 178.263 361.282 178.324C398.643 187.842 431.123 197.102 466.429 213.276C466.705 213.403 466.904 213.652 466.963 213.95C467.711 217.755 468.994 224.84 470.038 227.883M313.328 192.166C317.569 193.17 324.239 193.094 329.057 193.514C340.471 194.465 351.87 195.63 363.244 197.008C404.264 202.27 432.333 212.291 470.038 227.883M470.038 227.883C473.877 231.471 476.944 233.687 478.384 238.645C478.458 238.898 478.415 239.172 478.273 239.395L478.219 239.48C478.013 239.805 477.629 239.977 477.258 239.876C473.581 238.874 470.309 235.049 466.861 233.624C377.64 196.735 278.15 190.501 182.81 198.085C168.01 199.262 152.963 200.279 138.274 202.361C102.889 207.353 67.9134 214.904 33.6232 224.957C32.7449 225.214 32.0469 224.203 32.6051 223.477C34.5066 221.006 36.4348 218.556 38.3899 216.128M38.3899 216.128C44.5141 209.444 49.5576 204.123 56.1383 197.842M38.3899 216.128C44.4936 215.519 63.5819 210.206 73.3428 207.611C74.2511 207.369 74.2913 206.089 73.4032 205.782C67.1069 203.602 62.1176 201.727 56.1383 197.842M428.206 136.685C416.133 117.756 385.301 99.0651 364.641 90.7295C301.058 65.0691 203.962 66.0211 140.256 92.0766C139.355 92.4452 139.563 93.7466 140.532 93.8505L148.407 94.6958M428.206 136.685C431.797 139.561 436.827 147.054 440.076 152.029C440.572 152.789 439.812 153.745 438.956 153.443C419.081 146.425 401.162 141.291 380.674 135.823C380.368 135.741 380.12 135.506 380.017 135.206C370.263 107.073 348.284 98.4787 322.24 88.8804M428.206 136.685C422.259 133.509 411.941 124.379 405.352 120.031C382.385 105.016 357.061 93.9784 330.43 87.3831M322.24 88.8804C298.42 85.1262 289.897 83.1146 264.801 86.2043M322.24 88.8804C324.166 88.2524 328.244 87.7259 330.43 87.3831M264.801 86.2043C244.856 91.3668 229.982 96.4003 217.248 113.682C217.073 113.92 216.797 114.068 216.501 114.074C206.711 114.294 194.65 114.945 184.93 116.356C184.621 116.401 184.309 116.289 184.096 116.061C172.987 104.206 164.819 98.6339 148.407 94.6958M264.801 86.2043C257.262 82.5516 260.585 83.7004 250.966 82.4037M148.407 94.6958C173.642 87.9932 224.991 82.528 250.966 82.4037M250.966 82.4037C268.197 79.2718 313.726 82.6117 330.43 87.3831M39.9734 176.673C39.2545 175.127 38.1901 172.68 37.3152 170.973C37.0774 170.509 36.5025 170.349 36.0469 170.602C27.3367 175.445 19.0218 179.337 15 189.036M39.9734 176.673C42.8647 180.723 50.1539 188.142 50.4534 191.715C50.4741 191.962 50.3529 192.192 50.1669 192.356L48.924 193.451M39.9734 176.673L36.2272 178.505M48.924 193.451C42.9522 198.755 36.5044 205.516 31.1684 211.564C30.7889 211.994 30.1204 211.996 29.7407 211.566C24.5205 205.653 15.5912 196.128 15 189.036M48.924 193.451C43.8276 188.657 40.4153 184.08 36.2272 178.505M15 189.036C18.9102 189.939 31.9384 181.08 36.2272 178.505M239.531 212.112C240.538 212.031 241.55 211.971 242.557 211.933C286.843 210.356 334.061 209.134 368.565 241.68C386.187 258.3 394.978 281.053 395.668 305.066C396.407 329.81 387.105 353.801 369.865 371.569C339.431 403.459 305.447 403.581 264.46 404.533L207.517 405.799C190.807 405.828 172.953 406.585 156.112 406.767C125.949 407.807 102.514 406.707 79.4642 384.86C43.6424 350.909 40.8883 284.26 74.8212 248.165C80.9412 241.645 88.1573 236.247 96.141 232.217C131.868 214.593 199.372 213.274 239.531 212.112ZM263.217 220.153C263.542 220.136 263.867 220.122 264.192 220.111C297.916 218.905 335.995 224.034 361.505 248.068C377.088 262.651 386.138 282.898 386.618 304.235C387.024 327.152 378.323 349.293 362.423 365.803C332.193 397.345 291.888 394.766 252.03 395.677L183.787 397.137L182.698 397.184C164.843 397.926 143.563 398.707 126.046 396.932C60.3695 390.276 40.3788 298.446 81.2459 254.951C88.5894 247.159 97.4961 241.007 107.383 236.897C143.58 221.976 222.056 221.312 263.217 220.153ZM242.468 226.622L245.644 226.513C282.374 225.281 325.75 223.89 354.429 250.881C369.605 265.205 378.371 285.038 378.745 305.902C379.306 327.006 371.466 347.47 356.948 362.797C330.324 390.772 294.195 389.002 258.578 389.795L203.047 391.166C189.501 391.075 174.95 391.672 161.362 392.101C134.666 392.944 111.758 393.832 90.7448 374.713C74.6554 360.075 67.0599 338.241 66.0696 316.885C65.1239 296.485 70.6964 274.972 84.7636 259.686C91.294 252.632 99.2347 247.029 108.07 243.24C139.674 229.725 207.426 228.18 242.468 226.622ZM278.913 261.642C299.931 257.883 320.047 271.808 323.922 292.808C327.797 313.807 313.986 333.996 293.009 337.991C271.861 342.018 251.477 328.072 247.57 306.904C243.662 285.736 257.725 265.43 278.913 261.642ZM293.513 272.962C301.393 271.758 308.803 277.051 310.216 284.9C311.63 292.747 306.528 300.291 298.72 301.911C293.488 302.997 288.069 301.155 284.584 297.101C281.091 293.047 280.083 287.418 281.935 282.401C283.796 277.385 288.224 273.771 293.513 272.962ZM126.285 267.008C147.367 263.679 167.122 278.166 170.283 299.274C173.443 320.382 158.798 340.021 137.666 343.013C116.771 345.971 97.4003 331.526 94.2749 310.655C91.1502 289.785 105.44 270.299 126.285 267.008ZM138.631 280.301C143.668 278.6 149.231 279.745 153.185 283.299C157.139 286.853 158.87 292.262 157.714 297.451C156.557 302.64 152.692 306.802 147.604 308.341C139.909 310.666 131.773 306.39 129.323 298.734C126.874 291.08 131.017 282.874 138.631 280.301ZM233.453 328.818C246.278 327.473 241.988 351.058 238.69 357.861C234.891 365.821 228.013 371.889 219.641 374.667C207.729 378.603 196.716 376.11 185.984 370.722C185.91 370.685 185.842 370.639 185.781 370.584C176.754 362.476 169.197 347.095 173.691 335.119C175.907 329.213 197.78 333.712 203.696 333.687C214.463 333.641 223.078 331.17 233.453 328.818ZM282.472 93.3821C311.045 90.2469 366.68 106.611 371.238 141.052C372.262 148.363 370.198 155.771 365.543 161.501C354.258 175.661 330.357 180.472 313.466 182.496C286.396 183.457 260.179 178.17 238.374 161.124C224.15 150.001 215.297 129.569 228.788 114.258C242.118 99.1268 263.371 95.1061 282.472 93.3821ZM285.795 99.0919C307.251 98.2665 330.925 103.869 348.084 117.507C360.668 127.511 369.93 145.639 357.443 159.685C346.362 172.144 326.246 174.911 310.452 176.034C287.021 176.184 264.038 172.543 245.124 157.606C232.613 147.727 224.451 130.635 236.463 116.994C248.545 103.278 268.595 100.41 285.795 99.0919ZM127.061 102.335C161.881 103.039 199.481 121.311 169.963 161.471C154.63 182.332 126.398 190.959 101.385 193.823C65.1012 193.49 24.4909 177.3 56.7225 133.533C71.5178 113.442 102.761 104.447 127.061 102.335ZM123.467 108.802C134.377 107.722 150.463 110.79 159.752 116.684C184.465 132.363 168.381 160.354 148.904 172.026C134.06 180.921 121.085 183.985 104.362 187.269C104.305 187.281 104.245 187.287 104.186 187.287C89.3948 187.395 74.8051 186.845 62.3413 177.694C48.7485 167.783 51.3686 150.043 61.1812 138.406C77.1471 119.47 99.524 111.345 123.467 108.802ZM493.095 187.112C462.527 168.442 416.267 154.807 382.529 145.735C381.978 145.587 381.431 145.959 381.349 146.523C379.986 155.875 377.815 162.551 371.077 169.528C370.569 170.055 370.795 170.947 371.5 171.143C396.924 178.218 421.347 185.186 446.161 194.574C458.534 199.257 472.918 207.773 485.118 211.405C485.458 211.506 485.819 211.407 486.062 211.149C491.715 205.153 502.952 193.131 493.095 187.112ZM207.902 121.86C208.845 121.666 209.755 121.796 210.709 121.909C210.96 121.939 211.195 122.064 211.341 122.272C214.191 126.332 211.853 132.709 213.106 140.462C213.2 141.043 212.771 141.587 212.184 141.612C206.598 141.842 199.935 142.574 194.427 143.044C193.902 143.112 192.681 143.067 191.914 143.046C191.705 143.04 191.5 142.972 191.356 142.821C188.86 140.229 188.249 129.639 187.524 124.323C187.445 123.745 187.887 123.222 188.469 123.209C194.43 123.075 202.038 122.301 207.902 121.86ZM207.632 149.404C210.903 148.985 211.642 149.005 214.645 149.431C214.932 149.472 215.126 149.747 215.067 150.031C215.034 150.19 214.926 150.323 214.777 150.387C208.579 153.038 201.699 153.045 195.036 153.329C193.163 153.613 191.717 153.869 190.207 153.541C189.548 153.398 189.433 152.614 190.033 152.306C194.146 150.192 204.017 149.64 207.632 149.404ZM314.032 344.19C314.013 344.027 314.043 343.861 314.128 343.72C315.145 342.051 317.078 340.942 318.953 339.891C319.545 339.559 320.286 339.99 320.283 340.669C320.283 340.793 320.257 340.917 320.201 341.028C319.235 342.945 317.209 343.869 315.177 344.821C314.681 345.053 314.097 344.734 314.032 344.19ZM330.81 353.976C330.635 353.674 330.664 353.295 330.898 353.037C333.153 350.557 336.778 348.574 339.743 346.798C340.038 346.621 340.417 346.679 340.645 346.937C340.809 347.124 340.867 347.386 340.772 347.616C339.486 350.727 335.025 352.799 331.903 354.31C331.507 354.502 331.03 354.357 330.81 353.976ZM105.37 360.268C102.352 358.79 98.4189 357.028 95.5141 356.038C94.6837 355.755 94.1337 356.634 94.7473 357.261C97.8031 360.384 100.784 361.49 104.964 361.822C105.939 361.899 106.248 360.698 105.37 360.268ZM321.904 348.684C321.701 348.49 321.641 348.189 321.807 347.963C323.205 346.051 329.037 341.814 331.679 339.728C332.069 339.42 332.577 339.499 332.737 339.97C332.777 340.085 332.814 340.2 332.848 340.308C332.922 340.541 332.908 340.797 332.796 341.015C330.776 344.932 326.579 346.805 322.672 348.796C322.418 348.925 322.11 348.881 321.904 348.684Z" stroke="#1C3C60" stroke-width="24.6187"/>
<path d="M51.0315 231.177C57.3961 225.423 76.6621 222.596 85.3283 220.583C154.75 204.463 226.425 200.628 297.494 204.793C343.388 207.481 393.686 217.148 437.419 231.673C444.585 234.053 455.439 237.405 461.345 242.394C462.661 243.501 462.921 246.487 463.157 248.256C467.633 280.419 470.721 306.582 461.646 338.868C430.928 458.391 285.518 441.542 190.915 436.699C165.921 435.419 137.922 434.222 113.476 429.277C92.2454 424.982 59.9244 397.475 52.58 377.135C52.2915 376.672 52.012 376.203 51.7431 375.728C34.7462 345.811 33.4699 291.813 41.842 259.249C44.0884 250.512 48.5145 240.487 51.0315 231.177Z" fill="#FEFEFE"/>
<path d="M52.5799 377.135C55.3674 379.037 63.2528 388.855 67.0087 392.241C104.838 426 167.495 424.583 216.489 423.803C286.477 422.691 384.586 430.677 436.996 374.673C441.164 370.225 444.203 365.507 447.916 361.208C453.131 355.185 456.519 343.971 461.646 338.868C430.928 458.39 285.518 441.542 190.914 436.698C165.921 435.419 137.922 434.222 113.476 429.277C92.2453 424.982 59.9243 397.475 52.5799 377.135Z" fill="#E3E2DF"/>
<path d="M51.0314 231.177C57.396 225.423 76.662 222.596 85.3283 220.583C154.75 204.463 226.425 200.628 297.494 204.793C343.388 207.481 393.686 217.148 437.419 231.673C444.585 234.053 455.439 237.405 461.345 242.394C462.661 243.501 462.921 246.487 463.157 248.256C419.05 226.442 348.718 211.353 299.85 209.017C281.578 208.144 260.219 208.621 241.558 208.497C214.48 208.317 189.229 207.468 162.347 211.698C139.99 215.216 117.661 218.332 95.3464 222.405C83.5027 224.567 63.1245 230.501 51.7553 231.142L51.0314 231.177Z" fill="#BEE0F7"/>
<path d="M239.531 212.112C240.538 212.032 241.55 211.971 242.557 211.933C286.843 210.356 334.061 209.134 368.565 241.681C386.187 258.3 394.978 281.053 395.668 305.067C396.407 329.81 387.105 353.801 369.865 371.569C339.431 403.46 305.447 403.581 264.46 404.533L207.517 405.799C190.807 405.828 172.953 406.585 156.112 406.767C125.949 407.807 102.514 406.707 79.4642 384.86C43.6424 350.909 40.8883 284.26 74.8212 248.165C80.9412 241.645 88.1573 236.247 96.141 232.217C131.868 214.593 199.372 213.275 239.531 212.112Z" fill="#1C3C60"/>
<path d="M263.217 220.153C263.542 220.136 263.867 220.122 264.192 220.111C297.916 218.905 335.995 224.034 361.505 248.068C377.088 262.651 386.138 282.898 386.617 304.235C387.024 327.152 378.323 349.293 362.423 365.803C332.193 397.345 291.888 394.766 252.03 395.677L183.787 397.137L182.698 397.184C164.843 397.926 143.563 398.707 126.046 396.931C60.3695 390.276 40.3789 298.446 81.2459 254.951C88.5894 247.159 97.4961 241.007 107.383 236.897C143.58 221.976 222.056 221.312 263.217 220.153Z" fill="#7FA7C6"/>
<path d="M242.467 226.622L245.644 226.513C282.374 225.282 325.75 223.89 354.429 250.881C369.605 265.205 378.371 285.038 378.745 305.903C379.306 327.006 371.466 347.47 356.947 362.797C330.324 390.772 294.195 389.002 258.578 389.795L203.047 391.166C189.501 391.076 174.95 391.672 161.361 392.101C134.666 392.944 111.758 393.832 90.7447 374.713C74.6553 360.075 67.0599 338.241 66.0695 316.885C65.1238 296.485 70.6963 274.972 84.7636 259.686C91.2939 252.632 99.2347 247.029 108.07 243.24C139.674 229.726 207.426 228.18 242.467 226.622Z" fill="#1C3C60"/>
<path d="M79.5755 285.868C84.6174 271.756 95.2668 259.504 108.876 253.026C144.729 235.961 255.272 232.432 295.186 236.464C304.196 237.375 313.247 239.105 321.794 242.164C340.211 248.756 355.631 261.666 364.024 279.458C368.801 289.596 371.401 302.278 369.166 313.404C368.59 329.449 363.471 341.032 352.991 353.209C326.766 383.674 286.396 379.42 250.243 380.673C239.276 381.053 228.295 381.022 217.326 381.359C190.235 381.524 161.829 384.543 134.822 383.115C128.701 382.809 122.651 381.663 116.844 379.708C79.4634 366.892 67.7668 320.116 79.5755 285.868Z" fill="#E3E2DF"/>
<path d="M79.5755 285.868C84.6175 271.756 95.2668 259.504 108.876 253.026C144.729 235.961 255.272 232.432 295.186 236.464C304.196 237.375 313.247 239.105 321.794 242.164C340.211 248.756 355.631 261.666 364.024 279.458C368.801 289.596 371.401 302.278 369.166 313.404C366.64 297.012 361.546 279.84 349.384 267.289C312.41 229.122 247.886 242.14 200.095 243.42C177.468 244.026 155.303 247.061 133.194 250.202C124.123 251.49 113.456 256.059 105.322 260.07C93.226 266.076 87.7234 278.653 80.0085 285.492L79.5755 285.868Z" fill="#BEE0F7"/>
<path d="M278.913 261.642C299.931 257.883 320.047 271.808 323.922 292.808C327.798 313.807 313.986 333.995 293.009 337.991C271.861 342.018 251.478 328.072 247.57 306.904C243.662 285.736 257.725 265.43 278.913 261.642Z" fill="#1C3C60"/>
<path d="M293.513 272.962C301.393 271.757 308.803 277.051 310.216 284.899C311.63 292.746 306.528 300.291 298.72 301.911C293.488 302.997 288.069 301.155 284.584 297.101C281.091 293.046 280.083 287.418 281.935 282.401C283.796 277.385 288.224 273.77 293.513 272.962Z" fill="#FEFEFE"/>
<path d="M126.285 267.008C147.367 263.679 167.122 278.166 170.283 299.274C173.443 320.382 158.798 340.02 137.666 343.013C116.771 345.971 97.4004 331.526 94.2749 310.655C91.1503 289.785 105.44 270.299 126.285 267.008Z" fill="#1C3C60"/>
<path d="M138.631 280.301C143.668 278.6 149.231 279.745 153.185 283.299C157.139 286.852 158.87 292.262 157.714 297.451C156.557 302.64 152.692 306.802 147.604 308.34C139.909 310.666 131.773 306.39 129.323 298.734C126.874 291.08 131.017 282.874 138.631 280.301Z" fill="#FEFEFE"/>
<path d="M233.453 328.818C246.278 327.473 241.988 351.058 238.69 357.861C234.891 365.821 228.013 371.889 219.642 374.667C207.687 378.617 196.64 376.093 185.873 370.666C176.806 362.58 169.182 347.136 173.691 335.119C175.907 329.213 197.78 333.712 203.696 333.687C214.463 333.641 223.078 331.17 233.453 328.818Z" fill="#1C3C60"/>
<path d="M195.544 366.781C192.512 365.33 190.768 364.139 190.356 360.662C192.884 354.852 205.963 352.089 211.758 351.483C219.199 350.706 225.589 352.393 232.592 354.579L227.72 360.655C218.515 367.326 212.194 369.774 200.411 367.792C198.779 367.507 197.155 367.17 195.544 366.781Z" fill="#DD8545"/>
<path d="M195.545 366.781C205.634 357.24 214.857 352.188 227.72 360.655C218.515 367.326 212.194 369.773 200.411 367.792C198.779 367.507 197.156 367.17 195.545 366.781Z" fill="#E39B54"/>
<path d="M332.363 339.176C332.599 339.421 332.834 340.29 332.964 340.671C330.95 344.971 326.384 346.88 322.248 349.013L321.566 348.361C322.354 346.566 330.088 341.074 332.363 339.176Z" fill="#EDB88D"/>
<path d="M93.0667 355.352C96.6357 356.01 105.357 360.131 108.625 361.946C101.489 361.938 97.6009 361.006 93.0667 355.352Z" fill="#7FA7C6"/>
<path d="M340.252 346.491L340.91 347.239C339.764 350.81 334.427 353.058 331.201 354.652L330.519 353.474C332.851 350.641 337.035 348.448 340.252 346.491Z" fill="#EDB88D"/>
<path d="M320.291 339.13L320.283 340.857C319.202 343.221 316.562 344.121 314.165 345.304L314.002 343.939C315.205 341.73 317.991 340.483 320.291 339.13Z" fill="#EDB88D"/>
<path d="M282.472 93.382C311.045 90.2468 366.68 106.611 371.238 141.052C372.262 148.363 370.198 155.771 365.543 161.501C354.258 175.661 330.357 180.472 313.466 182.496C286.396 183.456 260.179 178.17 238.374 161.123C224.15 150.001 215.297 129.569 228.788 114.257C242.118 99.1267 263.371 95.106 282.472 93.382Z" fill="#E39B54"/>
<path d="M285.795 99.0918C307.251 98.2663 330.925 103.869 348.084 117.507C360.668 127.511 369.93 145.639 357.443 159.685C346.361 172.144 326.246 174.911 310.452 176.034C287.021 176.184 264.038 172.543 245.124 157.606C232.613 147.726 224.451 130.635 236.463 116.994C248.545 103.278 268.595 100.41 285.795 99.0918Z" fill="#1C3C60"/>
<path d="M278.694 108.191L288.337 107.555C292.936 107.872 298.022 108.119 302.571 108.571C312.621 110.257 319.494 111.868 328.813 115.971C352.78 126.52 368.85 150.425 334.801 162.628L323.703 165.767L314.547 167.055L300.76 167.042C286.68 167.17 272.788 163.787 260.341 157.199C228.819 140.438 234.049 119.573 266.442 110.491L278.694 108.191Z" fill="#FEFEFE"/>
<path d="M300.76 167.042C286.68 167.17 272.788 163.787 260.341 157.199C228.819 140.438 234.049 119.572 266.442 110.49C275.119 123.869 283.536 137.411 291.693 151.11C293.399 153.96 299.72 164.359 300.76 167.042Z" fill="#7FA7C6"/>
<path d="M302.571 108.571C312.621 110.256 319.494 111.868 328.813 115.971C352.78 126.52 368.85 150.425 334.801 162.627C333.753 158.809 306.544 115.132 302.571 108.571Z" fill="#7FA7C6"/>
<path d="M288.338 107.555C292.936 107.872 298.022 108.119 302.571 108.571C306.544 115.132 333.753 158.809 334.801 162.628L323.703 165.767C312.938 145.718 300.581 126.718 288.338 107.555Z" fill="#FEFEFE"/>
<path d="M278.694 108.191L288.337 107.555C300.581 126.718 312.938 145.718 323.703 165.767L314.547 167.055C301.864 148.245 290.767 127.596 278.694 108.191Z" fill="#6D8CA5"/>
<path d="M127.061 102.335C161.881 103.039 199.481 121.311 169.963 161.471C154.63 182.332 126.398 190.959 101.385 193.823C65.1011 193.49 24.4909 177.3 56.7225 133.532C71.5177 113.442 102.761 104.447 127.061 102.335Z" fill="#E39B54"/>
<path d="M123.467 108.802C134.377 107.722 150.463 110.79 159.752 116.684C184.465 132.363 168.381 160.354 148.904 172.026C134.034 180.937 121.04 183.995 104.275 187.287C89.453 187.397 74.83 186.863 62.3413 177.694C48.7485 167.783 51.3686 150.043 61.1812 138.406C77.1471 119.47 99.524 111.345 123.467 108.802Z" fill="#1C3C60"/>
<path d="M108.388 120.072C152.648 108.6 187.684 139.085 142.173 165.851C138.728 167.591 135.23 169.321 131.808 171.095L122.187 174.666C118.808 175.613 113.595 176.902 110.456 178.111C74.5327 183.263 40.7273 166.683 78.8906 133.365L89.055 127.577C92.3989 125.424 94.9362 124.669 98.6335 123.355L108.388 120.072Z" fill="#FEFEFE"/>
<path d="M108.388 120.072C152.648 108.6 187.684 139.085 142.173 165.851C136.891 158.032 114.308 124.081 108.388 120.072Z" fill="#7FA7C6"/>
<path d="M110.456 178.111C74.5327 183.263 40.7273 166.683 78.8906 133.365L99.3217 162.242C102.241 166.434 107.431 174.477 110.456 178.111Z" fill="#7FA7C6"/>
<path d="M89.055 127.577C92.576 132.526 121.95 172.858 122.187 174.666C118.808 175.613 113.595 176.902 110.456 178.111C107.431 174.477 102.241 166.434 99.3216 162.242L78.8906 133.365L89.055 127.577Z" fill="#FEFEFE"/>
<path d="M89.0548 127.577C92.3988 125.424 94.936 124.669 98.6334 123.355C100.357 127.921 127.29 165.44 131.808 171.095L122.187 174.666C121.949 172.858 92.5759 132.526 89.0548 127.577Z" fill="#6D8CA5"/>
<path d="M185.613 163.112C191.309 163.935 211.178 161.673 217.625 160.888C224.578 161.034 229.291 165.477 234.67 169.698C258.131 188.109 284.625 191.4 313.328 192.166C332.436 189.474 343.729 187.926 360.912 178.229C398.585 187.82 431.277 197.125 466.87 213.478C467.601 217.139 468.949 224.709 470.038 227.883C473.978 231.566 477.106 233.803 478.496 239.045L477.878 240.017C473.946 239.309 470.501 235.129 466.861 233.624C377.64 196.735 278.15 190.501 182.81 198.084C168.01 199.262 152.963 200.279 138.274 202.361C101.934 207.487 66.0256 215.314 30.8481 225.776C33.3163 222.524 35.8299 219.308 38.3899 216.128C44.514 209.444 49.5576 204.123 56.1383 197.841C61.9683 195.401 68.2038 199.091 74.4554 200.611C88.9395 204.116 104.032 204.273 118.586 201.07C142.764 195.637 161.255 185.128 178.133 167.277C180.215 165.075 182.784 164.013 185.613 163.112Z" fill="#DD8545"/>
<path d="M360.912 178.229C398.585 187.82 431.277 197.125 466.87 213.479C467.601 217.139 468.949 224.71 470.038 227.883C432.333 212.291 404.264 202.27 363.244 197.008C351.87 195.63 340.471 194.465 329.057 193.514C324.239 193.094 317.569 193.17 313.328 192.166C332.436 189.474 343.729 187.926 360.912 178.229Z" fill="#C67C48"/>
<path d="M56.1384 197.842C63.0327 202.322 68.6109 204.128 76.394 206.812C68.3095 208.874 45.2201 215.447 38.39 216.128C44.5141 209.444 49.5577 204.123 56.1384 197.842Z" fill="#EDB88D"/>
<path d="M136.947 93.4658C200.558 66.0625 299.947 64.6206 364.641 90.7295C385.301 99.0651 416.133 117.756 428.206 136.685C432.431 140.068 438.646 149.84 441.611 154.387C420.504 146.822 401.786 141.452 380.183 135.692C370.515 107.172 348.433 98.5337 322.24 88.8804C298.42 85.1262 289.897 83.1146 264.801 86.2043C244.71 91.4046 229.763 96.4742 216.968 114.064C206.932 114.277 194.395 114.944 184.438 116.428C173.154 104.321 164.987 98.6743 148.407 94.6958L136.947 93.4658Z" fill="#EDB88D"/>
<path d="M148.407 94.6959C173.642 87.9934 224.991 82.5281 250.966 82.4038C260.585 83.7005 257.262 82.5517 264.801 86.2044C244.71 91.4048 229.763 96.4743 216.968 114.064C206.932 114.277 194.395 114.944 184.439 116.429C173.154 104.321 164.987 98.6744 148.407 94.6959Z" fill="#DD8545"/>
<path d="M330.43 87.3828C357.061 93.9781 382.385 105.016 405.352 120.03C411.941 124.379 422.259 133.509 428.206 136.685C432.431 140.067 438.646 149.839 441.611 154.387C420.504 146.822 401.786 141.452 380.183 135.692C370.515 107.171 348.433 98.5335 322.24 88.8801C324.166 88.2521 328.244 87.7257 330.43 87.3828Z" fill="#DD8545"/>
<path d="M250.966 82.4035C268.197 79.2716 313.726 82.6115 330.43 87.3829C328.244 87.7258 324.166 88.2523 322.24 88.8803C298.42 85.126 289.897 83.1144 264.801 86.2041C257.262 82.5514 260.585 83.7002 250.966 82.4035Z" fill="#E39B54"/>
<path d="M381.499 145.458C415.321 154.529 462.214 168.251 493.095 187.112C503.185 193.274 491.17 205.727 485.669 211.566C473.353 208.031 458.721 199.327 446.161 194.574C420.829 184.989 395.904 177.928 369.906 170.699C377.843 163.024 380.069 155.908 381.499 145.458Z" fill="#6D8CA5"/>
<path d="M36.8699 170.142C37.8009 171.782 39.1268 174.852 39.9734 176.673C42.9729 180.875 50.7056 188.702 50.457 192.1L48.924 193.451C42.6829 198.994 35.9218 206.129 30.4533 212.377C25.3813 206.556 15.6191 196.463 15 189.036C19.1483 179.032 27.8641 175.205 36.8699 170.142Z" fill="#5B7383"/>
<path d="M36.8699 170.142C37.8009 171.782 39.1268 174.852 39.9734 176.673L36.2272 178.505C31.9384 181.08 18.9102 189.939 15 189.036C19.1483 179.032 27.8641 175.205 36.8699 170.142Z" fill="#6D8CA5"/>
<path d="M36.2273 178.505L39.9734 176.673C42.9729 180.875 50.7057 188.701 50.4571 192.1L48.924 193.451C43.8277 188.657 40.4154 184.08 36.2273 178.505Z" fill="#4E6570"/>
<path d="M207.902 121.86C208.974 121.639 210.003 121.838 211.103 121.954C214.466 126.181 211.577 133.108 213.309 141.572C207.51 141.741 200.31 142.542 194.427 143.044C193.82 143.123 192.283 143.05 191.592 143.038C188.703 140.732 188.191 128.153 187.359 123.227C193.461 123.174 201.667 122.328 207.902 121.86Z" fill="#6D8CA5"/>
<path d="M207.632 149.404C211.087 148.961 211.718 149.008 215.176 149.507L215.015 150.284C208.756 153.037 201.784 153.041 195.036 153.329C192.621 153.695 190.915 154.015 188.866 153.094C191.805 150.322 203.604 149.667 207.632 149.404Z" fill="#6D8CA5"/>
</svg>
